<svg xmlns="http://www.w3.org/2000/svg"  viewBox="0 0 64 64" width="512px" height="512px"><path fill="#ed7899" d="M3 7A2 2 0 1 0 3 11A2 2 0 1 0 3 7Z"/><path fill="#c2cde7" d="M61,57H16c-1.105,0-2-0.895-2-2v-4c0-1.105,0.895-2,2-2h45c1.105,0,2,0.895,2,2v4 C63,56.105,62.105,57,61,57z"/><path fill="#ced8ed" d="M28,57H17c-1.657,0-3-1.343-3-3v-2c0-1.657,1.343-3,3-3h11V57z"/><path fill="#b5c4e0" d="M49,57h11c1.657,0,3-1.343,3-3v-2c0-1.657-1.343-3-3-3H49V57z"/><path fill="#ed7899" d="M23 55A4 4 0 1 0 23 63 4 4 0 1 0 23 55zM55 55A4 4 0 1 0 55 63 4 4 0 1 0 55 55z"/><path fill="#f283a5" d="M23 57A2 2 0 1 0 23 61 2 2 0 1 0 23 57zM55 57A2 2 0 1 0 55 61 2 2 0 1 0 55 57z"/><g><path fill="#b5c4e0" d="M59,29H19c-1.105,0-2-0.895-2-2v-2c0-1.105,0.895-2,2-2h40c1.105,0,2,0.895,2,2v2 C61,28.105,60.105,29,59,29z"/></g><g><path fill="#b5c4e0" d="M52 29L46 29 26 49 32 49z"/></g><g><path fill="#ced8ed" d="M26 29L32 29 52 49 46 49z"/></g><path fill="#ced8ed" d="M17 23H42V29H17z"/><path fill="#c2cde7" d="M27 23H52V29H27z"/><g><path fill="#8d6c9f" d="M61,48h-8.58l-9-9l9-9H59c1.654,0,3-1.346,3-3v-2c0-1.654-1.346-3-3-3H19c-1.654,0-3,1.346-3,3v2 c0,1.654,1.346,3,3,3h6.58l9,9l-9,9H16c-1.16,0-2.17,0.67-2.67,1.64c-0.43-0.68-0.69-1.46-0.75-2.3l-2.21-32.81 C10.19,11.77,8.4,9.46,5.95,8.5C5.72,7.08,4.48,6,3,6C1.35,6,0,7.35,0,9c0,1.65,1.35,3,3,3c1.1,0,2.07-0.6,2.59-1.49 c1.55,0.77,2.66,2.32,2.79,4.15l2.2,32.81c0.13,1.93,1.05,3.64,2.42,4.82V55c0,1.65,1.35,3,3,3h2.1c-0.07,0.32-0.1,0.66-0.1,1 c0,2.76,2.24,5,5,5s5-2.24,5-5c0-0.34-0.03-0.68-0.1-1h22.2c-0.07,0.32-0.1,0.66-0.1,1c0,2.76,2.24,5,5,5s5-2.24,5-5 c0-0.34-0.03-0.68-0.1-1H61c1.65,0,3-1.35,3-3v-4C64,49.35,62.65,48,61,48z M2,9c0-0.55,0.45-1,1-1s1,0.45,1,1s-0.45,1-1,1 S2,9.55,2,9z M42.01,37.59L40.42,36l5.99-6h3.18L42.01,37.59z M34.42,30h9.16L39,34.58L34.42,30z M18,27v-2c0-0.551,0.448-1,1-1h40 c0.552,0,1,0.449,1,1v2c0,0.551-0.448,1-1,1h-7h-6H32h-6h-7C18.448,28,18,27.551,18,27z M28.41,30h3.18l18,18h-3.18L28.41,30z M39,43.42L43.58,48h-9.16L39,43.42L39,43.42z M36,40.42L36,40.42l1.59,1.59l-6,5.99h-3.18L36,40.42z M26,59c0,1.65-1.35,3-3,3 s-3-1.35-3-3c0-0.35,0.06-0.69,0.18-1c0.41-1.16,1.52-2,2.82-2s2.41,0.84,2.82,2C25.94,58.31,26,58.65,26,59z M58,59 c0,1.65-1.35,3-3,3s-3-1.35-3-3c0-0.35,0.06-0.69,0.18-1c0.41-1.16,1.52-2,2.82-2s2.41,0.84,2.82,2C57.94,58.31,58,58.65,58,59z M62,55c0,0.55-0.45,1-1,1h-2c-0.91-1.21-2.37-2-4-2s-3.09,0.79-4,2H27c-0.91-1.21-2.37-2-4-2s-3.09,0.79-4,2h-3 c-0.55,0-1-0.45-1-1v-1.5v-2.22V51c0-0.55,0.45-1,1-1h10h6h14h6h9c0.55,0,1,0.45,1,1V55z"/><path fill="#8d6c9f" d="M24 20.057c.553 0 1-.448 1-1v-2c0-.552-.447-1-1-1s-1 .448-1 1v2C23 19.609 23.447 20.057 24 20.057zM19 20.057c.553 0 1-.448 1-1v-2c0-.552-.447-1-1-1s-1 .448-1 1v2C18 19.609 18.447 20.057 19 20.057zM29 20.057c.553 0 1-.448 1-1v-2c0-.552-.447-1-1-1s-1 .448-1 1v2C28 19.609 28.447 20.057 29 20.057zM34 20.057c.553 0 1-.448 1-1v-2c0-.552-.447-1-1-1s-1 .448-1 1v2C33 19.609 33.447 20.057 34 20.057zM39 20.057c.553 0 1-.448 1-1v-2c0-.552-.447-1-1-1s-1 .448-1 1v2C38 19.609 38.447 20.057 39 20.057zM44 20.057c.553 0 1-.448 1-1v-2c0-.552-.447-1-1-1s-1 .448-1 1v2C43 19.609 43.447 20.057 44 20.057zM49 20.057c.553 0 1-.448 1-1v-2c0-.552-.447-1-1-1s-1 .448-1 1v2C48 19.609 48.447 20.057 49 20.057zM54 20.057c.553 0 1-.448 1-1v-2c0-.552-.447-1-1-1s-1 .448-1 1v2C53 19.609 53.447 20.057 54 20.057zM59 20.057c.553 0 1-.448 1-1v-2c0-.552-.447-1-1-1s-1 .448-1 1v2C58 19.609 58.447 20.057 59 20.057z"/></g></svg>