<svg xmlns="http://www.w3.org/2000/svg"  viewBox="0 0 64 64" width="512px" height="512px"><path fill="#bbdef9" d="M36,9H52a3,3,0,0,1,3,3V22a0,0,0,0,1,0,0H33a0,0,0,0,1,0,0V12A3,3,0,0,1,36,9Z"/><path fill="#def0ff" d="M40.54 22H55V12a3 3 0 0 0-3-3H50.83zM34.54 22L37.54 22 47.83 9 44.83 9 34.54 22zM41.57 9L41 9 31 21.63 31 22 31.71 22 42 9 41.57 9z"/><path fill="#c2cde7" d="M3 45H61V57H3z"/><path fill="#b5c4e0" d="M7,50H57a4,4,0,0,1,4,4v2a1,1,0,0,1-1,1H4a1,1,0,0,1-1-1V54A4,4,0,0,1,7,50Z"/><path fill="#ced8ed" d="M61 45L3 45 9 21 55 21 61 45z"/><path fill="#dae2ef" d="M56.06 24L55 21 9 21 7.94 24 56.06 24z"/><path fill="#faefde" d="M13 10H27V29H13z"/><path fill="#ed7899" d="M13 35A2 2 0 1 0 13 39A2 2 0 1 0 13 35Z"/><path fill="#ffeb9b" d="M33 27H37V31H33zM41 27H45V31H41zM49 27H53V31H49zM49 35H53V39H49zM41 35H45V39H41zM33 35H37V39H33z"/><path fill="#8d6c9f" d="M7 48a1 1 0 0 0-1 1v2a1 1 0 0 0 2 0V49A1 1 0 0 0 7 48zM12 48a1 1 0 0 0-1 1v2a1 1 0 0 0 2 0V49A1 1 0 0 0 12 48zM17 48a1 1 0 0 0-1 1v2a1 1 0 0 0 2 0V49A1 1 0 0 0 17 48zM22 48a1 1 0 0 0-1 1v2a1 1 0 0 0 2 0V49A1 1 0 0 0 22 48zM27 48a1 1 0 0 0-1 1v2a1 1 0 0 0 2 0V49A1 1 0 0 0 27 48zM32 48a1 1 0 0 0-1 1v2a1 1 0 0 0 2 0V49A1 1 0 0 0 32 48zM37 48a1 1 0 0 0-1 1v2a1 1 0 0 0 2 0V49A1 1 0 0 0 37 48zM42 48a1 1 0 0 0-1 1v2a1 1 0 0 0 2 0V49A1 1 0 0 0 42 48zM47 48a1 1 0 0 0-1 1v2a1 1 0 0 0 2 0V49A1 1 0 0 0 47 48zM52 48a1 1 0 0 0-1 1v2a1 1 0 0 0 2 0V49A1 1 0 0 0 52 48zM57 48a1 1 0 0 0-1 1v2a1 1 0 0 0 2 0V49A1 1 0 0 0 57 48zM13 40a3 3 0 1 0-3-3A3 3 0 0 0 13 40zm0-4.31A1.31 1.31 0 1 1 11.69 37 1.31 1.31 0 0 1 13 35.69zM19 38h8a1 1 0 0 0 0-2H19a1 1 0 0 0 0 2z"/><path fill="#8d6c9f" d="M61.85,44.28,56,20.88V11a3,3,0,0,0-3-3H35a3,3,0,0,0-3,3v9H28V11a1,1,0,0,0-.29-.71l-2-2a1,1,0,0,0-1.26-.12L22,9.8,19.55,8.17a1,1,0,0,0-1.11,0L16,9.8,13.56,8.17A1,1,0,0,0,12,9V20H10.56a3,3,0,0,0-2.91,2.27l-5.5,22A5,5,0,0,0,2,45.49V55a3,3,0,0,0,3,3H59a3,3,0,0,0,3-3V45.49A5,5,0,0,0,61.85,44.28ZM14,10.87l1.45,1a1,1,0,0,0,1.11,0L19,10.2l2.45,1.63a1,1,0,0,0,1.11,0l2.32-1.54L26,11.41V28H14ZM9.59,22.76a1,1,0,0,1,1-.76H12v6H11a1,1,0,0,0,0,2H29a1,1,0,0,0,0-2H28V22h5a1,1,0,0,0,1-1V11a1,1,0,0,1,1-1H53a1,1,0,0,1,1,1V21a1,1,0,0,0,0,.24L59.72,44H4.28ZM59,56H5a1,1,0,0,1-1-1V46H60v9A1,1,0,0,1,59,56Z"/><path fill="#8d6c9f" d="M37,22H51a1,1,0,0,0,0-2H37a1,1,0,0,0,0,2Z"/><path fill="#eb9697" d="M17 16h5a1 1 0 0 0 0-2H17a1 1 0 0 0 0 2zM19 22H17a1 1 0 0 0 0 2h2a1 1 0 0 0 0-2zM23 18H17a1 1 0 0 0 0 2h6a1 1 0 0 0 0-2z"/><path fill="#8d6c9f" d="M44 34H42a2 2 0 0 0-2 2v2a2 2 0 0 0 2 2h2a2 2 0 0 0 2-2V36A2 2 0 0 0 44 34zm.18 4.18H41.82V35.77h2.36zM52 34H50a2 2 0 0 0-2 2v2a2 2 0 0 0 2 2h2a2 2 0 0 0 2-2V36A2 2 0 0 0 52 34zm.2 4.2H49.8v-2.4h2.4zM44 26H42a2 2 0 0 0-2 2v2a2 2 0 0 0 2 2h2a2 2 0 0 0 2-2V28A2 2 0 0 0 44 26zm.17 4.17H41.83V27.78h2.33zM34 40h2a2 2 0 0 0 2-2V36a2 2 0 0 0-2-2H34a2 2 0 0 0-2 2v2A2 2 0 0 0 34 40zm-.2-4.2h2.4v2.4H33.8v-2.4zM34 32h2a2 2 0 0 0 2-2V28a2 2 0 0 0-2-2H34a2 2 0 0 0-2 2v2A2 2 0 0 0 34 32zm-.22-4.22h2.44v2.44H33.78V27.73zM50 26a2 2 0 0 0-2 2v2a2 2 0 0 0 2 2h2a2 2 0 0 0 2-2V28a2 2 0 0 0-2-2zm2.23 4.23H49.77V27.72h2.46z"/></svg>