<svg xmlns="http://www.w3.org/2000/svg"  viewBox="0 0 64 64" width="512px" height="512px"><path fill="#f9e3ae" d="M41.5 3A7.5 7.5 0 1 0 41.5 18A7.5 7.5 0 1 0 41.5 3Z"/><path fill="#f6d397" d="M32 7A9 9 0 1 0 32 25A9 9 0 1 0 32 7Z"/><path fill="#f9e3ae" d="M41 15A12 12 0 1 0 41 39A12 12 0 1 0 41 15Z"/><path fill="#faefde" d="M27,50l5,2a10,10,0,0,0,7.81-.16l2.95-1.33A2,2,0,0,0,44,48.71V48.3a4,4,0,0,0-4.29-4l-2.19.16a6,6,0,0,1-3-.56l-9.41-4.44A12,12,0,0,0,18.6,38.4L6.77,39.79a2,2,0,0,0-1.77,2V54.44a2,2,0,0,0,2.48,1.94L14,54.74a8,8,0,0,1,5.67.68L32.3,62.05a8,8,0,0,0,7.41,0L61,51a3.68,3.68,0,0,0,2-3.27h0a3.68,3.68,0,0,0-4.6-3.56L44,47.93"/><path fill="#efd8be" d="M42.49,56.64l-2.78,1.44a8,8,0,0,1-7.41,0L19.71,51.42A8,8,0,0,0,14,50.74L5,53v1.44a2,2,0,0,0,2.48,1.94L14,54.74a8,8,0,0,1,5.67.68L32.3,62.05a8,8,0,0,0,7.41,0l7.1-3.68-.34-.6A3,3,0,0,0,42.49,56.64Z"/><path fill="#fff7f0" d="M25.12,43.47l9.41,4.44a6,6,0,0,0,3,.56l2.19-.16a4,4,0,0,1,3.65,1.86l.1.18a2,2,0,0,0,2.34,1.12L62.91,47a3.67,3.67,0,0,0-4.52-2.83L44,47.93h0a4,4,0,0,0-4.25-3.62l-2.19.16a6,6,0,0,1-3-.56l-9.41-4.44A12,12,0,0,0,18.6,38.4L6.77,39.79a2,2,0,0,0-1.77,2V44l13.6-1.6A12,12,0,0,1,25.12,43.47Z"/><path fill="#8d6c9f" d="M11 42H9a1 1 0 0 0 0 2h2a1 1 0 0 0 0-2zM11 47H9a1 1 0 0 0 0 2h2a1 1 0 0 0 0-2zM11 52H9a1 1 0 0 0 0 2h2a1 1 0 0 0 0-2z"/><path fill="#8d6c9f" d="M62.18 44.05a4.65 4.65 0 0 0-4-.83L44.74 46.7a5 5 0 0 0-5.1-3.39l-2.19.16A5 5 0 0 1 35 43l-9.41-4.44a13 13 0 0 0-7.07-1.15L6.65 38.8a3 3 0 0 0-2.65 3V54.44a3 3 0 0 0 3.73 2.91l6.56-1.64a7 7 0 0 1 5 .6l12.59 6.63a9 9 0 0 0 8.34 0l21.3-11a4.69 4.69 0 0 0 .71-7.86zm-1.63 6.09l-21.3 11a7 7 0 0 1-6.48 0L20.18 54.54a9 9 0 0 0-6.37-.77L7.24 55.41a1 1 0 0 1-1.24-1V41.78a1 1 0 0 1 .88-1l11.83-1.39a11 11 0 0 1 6 1l9.41 4.44a7.06 7.06 0 0 0 3.49.65l2.19-.16a3 3 0 0 1 3.22 3v.41a1 1 0 0 1-.59.91l-3 1.33a9.05 9.05 0 0 1-7 .15l-5-2a1 1 0 1 0-.74 1.86l5 2a11.05 11.05 0 0 0 8.6-.18l3-1.33A3 3 0 0 0 45 48.71l13.65-3.54a2.68 2.68 0 0 1 1.91 5zM28 16a4 4 0 0 1 4-4 1 1 0 0 0 0-2 6 6 0 0 0-6 6 1 1 0 0 0 2 0z"/><path fill="#8d6c9f" d="M28.14,25.21A13,13,0,1,0,47.94,16,8.48,8.48,0,1,0,34.16,6.24a10,10,0,0,0-6,19ZM52,27A11,11,0,1,1,41,16,11,11,0,0,1,52,27ZM41.5,4a6.48,6.48,0,0,1,4.61,11.05,12.91,12.91,0,0,0-4.31-1A10,10,0,0,0,36.11,6.9,6.48,6.48,0,0,1,41.5,4ZM32,8a8,8,0,0,1,7.75,6.06A13,13,0,0,0,28.57,23.2,8,8,0,0,1,32,8Z"/><path fill="#8d6c9f" d="M40,19v1a4,4,0,0,0,0,8h2a2,2,0,0,1,0,4V30a1,1,0,0,0-2,0v2a2,2,0,0,1-2-2,1,1,0,0,0-2,0,4,4,0,0,0,4,4v1a1,1,0,0,0,2,0V34a4,4,0,0,0,0-8V24a1,1,0,0,0-2,0v2a2,2,0,0,1,0-4h2a2,2,0,0,1,2,2,1,1,0,0,0,2,0,4,4,0,0,0-4-4V19a1,1,0,0,0-2,0Z"/></svg>