<svg xmlns="http://www.w3.org/2000/svg"  viewBox="0 0 64 64" width="512px" height="512px"><path fill="#ced8ed" d="M61,21H3V11c0-1.105,0.895-2,2-2h54c1.105,0,2,0.895,2,2V21z"/><path fill="#faefde" d="M27 13H57V17H27z"/><path fill="#c5e4fa" d="M59,55H5c-1.105,0-2-0.895-2-2V21h58v32C61,54.105,60.105,55,59,55z"/><path fill="#e3f2ff" d="M47.167 55L61 41.167 61 21 59.833 21 25.836 55zM55.187 21L46.66 21 12.66 55 21.187 55zM38.962 21L4.966 54.997C4.977 54.997 4.988 55 5 55h4.006l34-34H38.962z"/><path fill="#8d6c9f" d="M11 29.975h4c.552 0 1-.448 1-1s-.448-1-1-1h-4c-.552 0-1 .448-1 1S10.448 29.975 11 29.975zM33 27.975H19c-.552 0-1 .448-1 1s.448 1 1 1h14c.552 0 1-.448 1-1S33.552 27.975 33 27.975zM11 35.975h4c.552 0 1-.448 1-1s-.448-1-1-1h-4c-.552 0-1 .448-1 1S10.448 35.975 11 35.975zM33 33.975H19c-.552 0-1 .448-1 1s.448 1 1 1h14c.552 0 1-.448 1-1S33.552 33.975 33 33.975zM15 39.975h-4c-.552 0-1 .448-1 1s.448 1 1 1h4c.552 0 1-.448 1-1S15.552 39.975 15 39.975zM47 27.975h-2c-.552 0-1 .448-1 1s.448 1 1 1h2c.552 0 1-.448 1-1S47.552 27.975 47 27.975zM39 29.975h2c.552 0 1-.448 1-1s-.448-1-1-1h-2c-.552 0-1 .448-1 1S38.448 29.975 39 29.975zM47 39.975h-2c-.552 0-1 .448-1 1s.448 1 1 1h2c.552 0 1-.448 1-1S47.552 39.975 47 39.975zM42 40.975c0-.552-.448-1-1-1h-2c-.552 0-1 .448-1 1s.448 1 1 1h2C41.552 41.975 42 41.527 42 40.975zM53 27.975h-2c-.552 0-1 .448-1 1s.448 1 1 1h2c.552 0 1-.448 1-1S53.552 27.975 53 27.975zM53 33.975h-2c-.552 0-1 .448-1 1s.448 1 1 1h2c.552 0 1-.448 1-1S53.552 33.975 53 33.975zM47 33.975h-2c-.552 0-1 .448-1 1s.448 1 1 1h2c.552 0 1-.448 1-1S47.552 33.975 47 33.975zM53 39.975h-2c-.552 0-1 .448-1 1s.448 1 1 1h2c.552 0 1-.448 1-1S53.552 39.975 53 39.975zM33 39.975H19c-.552 0-1 .448-1 1s.448 1 1 1h14c.552 0 1-.448 1-1S33.552 39.975 33 39.975zM8 13A2 2 0 1 0 8 17 2 2 0 1 0 8 13zM14 13A2 2 0 1 0 14 17 2 2 0 1 0 14 13zM20 13A2 2 0 1 0 20 17 2 2 0 1 0 20 13z"/><path fill="#8d6c9f" d="M59,8H5c-1.654,0-3,1.346-3,3v42c0,1.654,1.346,3,3,3h54c1.654,0,3-1.346,3-3V11 C62,9.346,60.654,8,59,8z M4,11c0-0.551,0.449-1,1-1h54c0.551,0,1,0.449,1,1v9H4V11z M59,54H5c-0.551,0-1-0.449-1-1V22h56v31 C60,53.551,59.551,54,59,54z"/><path fill="#8d6c9f" d="M17 48c-.552 0-1 .448-1 1v2c0 .552.448 1 1 1s1-.448 1-1v-2C18 48.448 17.552 48 17 48zM12 48c-.552 0-1 .448-1 1v2c0 .552.448 1 1 1s1-.448 1-1v-2C13 48.448 12.552 48 12 48zM7 48c-.552 0-1 .448-1 1v2c0 .552.448 1 1 1s1-.448 1-1v-2C8 48.448 7.552 48 7 48zM22 48c-.552 0-1 .448-1 1v2c0 .552.448 1 1 1s1-.448 1-1v-2C23 48.448 22.552 48 22 48zM27 48c-.552 0-1 .448-1 1v2c0 .552.448 1 1 1s1-.448 1-1v-2C28 48.448 27.552 48 27 48zM32 48c-.552 0-1 .448-1 1v2c0 .552.448 1 1 1s1-.448 1-1v-2C33 48.448 32.552 48 32 48zM37 48c-.552 0-1 .448-1 1v2c0 .552.448 1 1 1s1-.448 1-1v-2C38 48.448 37.552 48 37 48zM42 48c-.552 0-1 .448-1 1v2c0 .552.448 1 1 1s1-.448 1-1v-2C43 48.448 42.552 48 42 48zM47 48c-.552 0-1 .448-1 1v2c0 .552.448 1 1 1s1-.448 1-1v-2C48 48.448 47.552 48 47 48zM52 48c-.552 0-1 .448-1 1v2c0 .552.448 1 1 1s1-.448 1-1v-2C53 48.448 52.552 48 52 48zM57 48c-.552 0-1 .448-1 1v2c0 .552.448 1 1 1s1-.448 1-1v-2C58 48.448 57.552 48 57 48zM56 12H28c-1.103 0-2 .897-2 2v2c0 1.103.897 2 2 2h28c1.103 0 2-.897 2-2v-2C58 12.897 57.103 12 56 12zM28 16v-2h28l.001 2H28z"/></svg>