<svg xmlns="http://www.w3.org/2000/svg"  viewBox="0 0 64 64" width="512px" height="512px"><path fill="#faefde" d="M63,41.251c0-8.365-8.51-15.152-19-15.152s-19,6.787-19,15.152s8.51,15.152,19,15.152 c1.466,0.002,2.929-0.133,4.37-0.402c0.85,1.568,3.06,4.022,7.43,5.027c-1.198-2.072-1.884-4.403-2-6.797 C59.33,51.556,63,46.75,63,41.251z"/><path fill="#efd8be" d="M25,41.723l1.47-0.261c1.322-0.213,2.618,0.509,3.14,1.749c1.54,3.449,5.13,6.405,9.76,7.812 c1.383,0.412,2.242,1.798,2,3.227l-0.22,1.307C32.62,54.08,26.2,48.329,25,41.723z"/><path fill="#fff7f0" d="M62.24,36.988l-1.41,0.503c-1.269,0.434-2.669-0.06-3.39-1.196c-2.1-3.137-6.13-5.439-10.94-6.033 c-1.425-0.177-2.496-1.392-2.5-2.835v-1.327C52.64,26.099,59.94,30.704,62.24,36.988z"/><path fill="#8d6c9f" d="M55.8,62.027c-0.074,0-0.149-0.008-0.224-0.025c-4.541-1.044-6.788-3.549-7.703-4.901 c-1.27,0.2-2.559,0.302-3.841,0.302c-0.011,0-0.021,0-0.033,0C32.972,57.402,24,50.157,24,41.251S32.972,25.1,44,25.1 s20,7.245,20,16.151c0,5.542-3.408,10.573-9.155,13.573c0.191,2.004,0.815,3.963,1.821,5.703c0.199,0.344,0.175,0.774-0.062,1.095 C56.413,61.88,56.113,62.027,55.8,62.027z M48.371,55c0.362,0,0.702,0.197,0.879,0.523c0.357,0.659,1.627,2.608,4.65,3.858 c-0.639-1.626-1.014-3.355-1.099-5.103c-0.02-0.401,0.203-0.774,0.564-0.949C58.772,50.716,62,46.2,62,41.251 C62,33.448,53.925,27.1,44,27.1s-18,6.349-18,14.151s8.075,14.151,18,14.151c0.01,0,0.02,0,0.03,0c1.391,0,2.789-0.13,4.157-0.386 C48.248,55.006,48.31,55,48.371,55z"/><path fill="#72caaf" d="M54,26.119c0,11.673-11.86,21.114-26.5,21.114c-2.043,0.001-4.082-0.191-6.09-0.573 c-1.19,2.192-4.27,5.64-10.36,7.038c1.65-2.896,2.587-6.147,2.73-9.481C6.12,40.497,1,33.781,1,26.119 C1,17.231,7.87,9.63,17.61,6.503c3.2-1.014,6.535-1.526,9.89-1.518c10.44,0,19.5,4.856,23.78,11.804 C53.046,19.578,53.989,22.813,54,26.119z"/><path fill="#97e0bb" d="M48.34,18.006L48.34,18.006c-0.999,0.402-2.141,0.118-2.84-0.704c-3.84-4.394-10.47-7.299-18-7.299 c-1.948-0.003-3.892,0.195-5.8,0.593c-1.093,0.224-2.199-0.316-2.7-1.317l0,0c-0.603-1.243-0.09-2.741,1.145-3.348 c0.186-0.091,0.382-0.159,0.585-0.201c2.24-0.47,4.522-0.706,6.81-0.704c9,0,17,3.579,21.74,9.049 c0.89,1.054,0.762,2.634-0.286,3.529C48.798,17.77,48.577,17.906,48.34,18.006z"/><path fill="#8d6c9f" d="M11,32.393l-1.46,1.398c-0.398,0.386-0.409,1.023-0.025,1.423c0.384,0.4,1.017,0.411,1.415,0.025 l1.44-1.398c0.44-0.336,0.526-0.966,0.192-1.409c-0.334-0.442-0.961-0.529-1.401-0.193C11.102,32.284,11.048,32.336,11,32.393z M16.48,35.681c-0.472-0.285-1.085-0.132-1.37,0.342l-1,1.719c-0.21,0.513,0.033,1.101,0.543,1.313 c0.413,0.171,0.89,0.046,1.167-0.307l1-1.719C17.083,36.56,16.934,35.966,16.48,35.681z M21.27,37.772 c-0.531-0.154-1.085,0.154-1.238,0.687c-0.001,0.002-0.001,0.004-0.002,0.007l-0.55,1.93c-0.124,0.541,0.212,1.081,0.75,1.205 c0.499,0.115,1.003-0.166,1.17-0.652l0.6-1.951c0.137-0.538-0.185-1.086-0.72-1.224C21.277,37.774,21.273,37.773,21.27,37.772z"/><path fill="#8d6c9f" d="M11.05,54.698c-0.312,0-0.611-0.146-0.803-0.403c-0.237-0.318-0.263-0.747-0.066-1.092 c1.459-2.559,2.339-5.445,2.562-8.387C4.75,40.715,0,33.768,0,26.119c0-9.12,6.792-17.193,17.304-20.567 c3.283-1.04,6.686-1.566,10.12-1.566c0.026,0,0.052,0,0.078,0c10.365,0,20.034,4.82,24.629,12.279 c1.862,2.941,2.857,6.352,2.869,9.852c0,0.001,0,0.002,0,0.003c0,12.193-12.336,22.114-27.5,22.114c-0.005,0-0.011,0-0.016,0 c-1.86,0-3.73-0.157-5.57-0.467c-1.147,1.781-4.207,5.43-10.641,6.906C11.199,54.69,11.124,54.698,11.05,54.698z M27.426,5.985 c-3.231,0-6.431,0.495-9.514,1.472C8.247,10.56,2,17.885,2,26.119c0,7.054,4.567,13.483,12.217,17.198 c0.358,0.174,0.579,0.544,0.562,0.942c-0.116,2.699-0.737,5.372-1.814,7.846c4.958-1.755,7.013-4.902,7.567-5.923 c0.208-0.382,0.639-0.585,1.066-0.505c1.938,0.369,3.919,0.556,5.888,0.556c0.005,0,0.01,0,0.015,0 c14.061,0,25.5-9.023,25.5-20.114c-0.011-3.121-0.898-6.162-2.565-8.795C46.189,10.432,37.189,5.985,27.5,5.985 C27.476,5.985,27.451,5.985,27.426,5.985z"/><path fill="#8d6c9f" d="M25.4,10.787c0.69-0.06,1.4-0.101,2.1-0.101c3.533-0.063,7.037,0.647,10.27,2.081 c0.505,0.228,1.099,0,1.325-0.508c0.226-0.508,0-1.105-0.505-1.332c-3.499-1.535-7.283-2.306-11.1-2.262c-0.76,0-1.52,0-2.26,0.111 c-0.552,0.05-0.96,0.541-0.91,1.096c0.05,0.555,0.538,0.965,1.09,0.915L25.4,10.787z M42.93,16.075 c0.414,0.369,1.048,0.331,1.415-0.085c0.367-0.416,0.329-1.053-0.085-1.423c-0.543-0.482-1.11-0.935-1.7-1.357 c-0.456-0.322-1.085-0.212-1.405,0.246c-0.32,0.458-0.211,1.091,0.245,1.413l0,0C41.931,15.244,42.441,15.646,42.93,16.075z"/><path fill="#8d6c9f" d="M38,21H17c-0.552,0-1-0.447-1-1s0.448-1,1-1h21c0.552,0,1,0.447,1,1S38.552,21,38,21z"/><path fill="#8d6c9f" d="M29,27H17c-0.552,0-1-0.447-1-1s0.448-1,1-1h12c0.552,0,1,0.447,1,1S29.552,27,29,27z"/></svg>