<svg xmlns="http://www.w3.org/2000/svg"  viewBox="0 0 64 64" width="512px" height="512px"><path fill="#faefde" d="M15.24,4.94H44a3,3,0,0,1,3,3v48a3,3,0,0,1-3,3H6a3,3,0,0,1-3-3V17.18a3,3,0,0,1,.88-2.12l9.24-9.24A3,3,0,0,1,15.24,4.94Z"/><path fill="#fff7f0" d="M3 59L2.85 49.54 46.34 6.06 47 29 17 59 3 59zM2.85 39.15L37.06 4.94 42.81 5.19 3 45 2.85 39.15zM2.85 33.15L31 5 34 5 2.85 36.15 2.85 33.15z"/><path fill="#fff" d="M22.5 12L23.74 14.26 26 15.5 23.74 16.74 22.5 19 21.26 16.74 19 15.5 21.26 14.26 22.5 12zM42.42 8L43.27 9.56 44.84 10.42 43.27 11.27 42.42 12.84 41.56 11.27 40 10.42 41.56 9.56 42.42 8zM15.65 45L16.23 46.06 17.3 46.65 16.23 47.23 15.65 48.3 15.06 47.23 14 46.65 15.06 46.06 15.65 45z"/><path fill="#bbdef9" d="M15 5L15 17 3 17 15 5z"/><path fill="#c5e4fa" d="M49,30.57v2.86a1,1,0,0,0,.49.86l1.8,1.08a10,10,0,0,1,3.07,2.89,9.34,9.34,0,0,1,.92,1.63l.49,1.1a31.13,31.13,0,0,0-2.84-1.3A20.73,20.73,0,0,0,45.56,38a20,20,0,0,0-8.18,2.29c-.48.24-.84.44-1.07.57l.41-.92a10,10,0,0,1,4-4.52l1.8-1.08a1,1,0,0,0,.49-.86V30.57a1,1,0,0,0-.49-.86l-1.8-1.08a7.67,7.67,0,0,1-1-.71,9.49,9.49,0,0,1-2-2,9.7,9.7,0,0,1-1-1.77L36,22.58,34,18H58l-1.3,2.92-1.42,3.19a10,10,0,0,1-4,4.52l-1.8,1.08A1,1,0,0,0,49,30.57Z"/><path fill="#e3f2ff" d="M49 30.57v2.86a1 1 0 0 0 .49.86l1.8 1.08a10 10 0 0 1 3.07 2.89l-1.43 1.43A20.73 20.73 0 0 0 45.56 38a20 20 0 0 0-8.18 2.29l1.1-3.36 4.27-2L56.7 20.92l-1.42 3.19a10 10 0 0 1-4 4.52l-1.8 1.08A1 1 0 0 0 49 30.57zM43 30.62v0a1 1 0 0 0-.49-.86l-1.8-1.08a7.67 7.67 0 0 1-1-.71L49.63 18h6zM45.62 18l-7.88 7.88a9.7 9.7 0 0 1-1-1.77L36 22.58 40.62 18z"/><path fill="#f9e3ae" d="M57.68,45.36l-23.21.12L35.34,43l1-2.18c1-.6,5.24-2.83,9.25-2.86s8.93,2.38,10.21,3l1.71,3.84Z"/><path fill="#fff" d="M57.48 44.83L58 46 34 46 35.34 42.99 34.47 45.48 57.68 45.36 57.48 44.83z"/><rect width="30" height="3" x="31" y="15" fill="#cda1a7" rx="1.5" ry="1.5"/><rect width="30" height="3" x="31" y="46" fill="#cda1a7" rx="1.5" ry="1.5"/><path fill="#8d6c9f" d="M7 52a1 1 0 0 0-1 1v2a1 1 0 0 0 2 0V53A1 1 0 0 0 7 52zM12 52a1 1 0 0 0-1 1v2a1 1 0 0 0 2 0V53A1 1 0 0 0 12 52zM17 52a1 1 0 0 0-1 1v2a1 1 0 0 0 2 0V53A1 1 0 0 0 17 52zM22 52a1 1 0 0 0-1 1v2a1 1 0 0 0 2 0V53A1 1 0 0 0 22 52zM27 52a1 1 0 0 0-1 1v2a1 1 0 0 0 2 0V53A1 1 0 0 0 27 52zM31 53v2a1 1 0 0 0 2 0V53a1 1 0 0 0-2 0zM37 56a1 1 0 0 0 1-1V53a1 1 0 0 0-2 0v2A1 1 0 0 0 37 56zM42 56a1 1 0 0 0 1-1V53a1 1 0 0 0-2 0v2A1 1 0 0 0 42 56z"/><path fill="#8d6c9f" d="M59.5,45h-.85L56.2,39.48h0a10.94,10.94,0,0,0-4.39-5L50,33.43V30.57l1.81-1.08a10.94,10.94,0,0,0,4.39-5L58.65,19h.85a2.5,2.5,0,0,0,0-5H48V7a3,3,0,0,0-3-3H15.66a5,5,0,0,0-3.54,1.46L3.46,14.12A5,5,0,0,0,2,17.66V57a3,3,0,0,0,3,3H45a3,3,0,0,0,3-3V50H59.5a2.5,2.5,0,0,0,0-5ZM37,41.67l4.35-1.74a12,12,0,0,1,9.26,0L55,41.67h0L56.46,45H35.54Zm17.35-18a9,9,0,0,1-3.59,4.06L49,28.85a2,2,0,0,0-1,1.71v2.87a2,2,0,0,0,1,1.72l1.8,1.08A9,9,0,0,1,53.64,39l-2.3-.92a14,14,0,0,0-10.71,0L38.36,39a9,9,0,0,1,2.86-2.75L43,35.15a2,2,0,0,0,1-1.71V30.57a2,2,0,0,0-1-1.71l-1.8-1.08a9,9,0,0,1-3.59-4.06L35.54,19H56.46ZM59.5,16a.5.5,0,0,1,0,1h-27a.5.5,0,0,1,0-1h27Zm-46-9.12A2.86,2.86,0,0,1,14,6.5V15a1,1,0,0,1-1,1H4.5a2.92,2.92,0,0,1,.38-.46ZM46,57a1,1,0,0,1-1,1H5a1,1,0,0,1-1-1V18h9a3,3,0,0,0,3-3V6H45a1,1,0,0,1,1,1v7H32.5a2.5,2.5,0,0,0,0,5h.85l2.45,5.52a10.94,10.94,0,0,0,4.39,5L42,30.57v2.87L40.2,34.52a10.94,10.94,0,0,0-4.39,5L33.35,45H32.5a2.5,2.5,0,0,0,0,5H46Zm13.5-9h-27a.5.5,0,0,1,0-1h27a.5.5,0,0,1,0,1Z"/><path fill="#8d6c9f" d="M17 26H30a1 1 0 0 0 0-2H17a1 1 0 0 0 0 2zM17 32h9a1 1 0 0 0 0-2H17a1 1 0 0 0 0 2zM17 38H31a1 1 0 0 0 0-2H17a1 1 0 0 0 0 2zM11 23A2 2 0 1 0 11 27 2 2 0 1 0 11 23zM28 42H17a1 1 0 0 0 0 2H28a1 1 0 0 0 0-2zM11 41A2 2 0 1 0 11 45 2 2 0 1 0 11 41zM11 29A2 2 0 1 0 11 33 2 2 0 1 0 11 29zM11 35A2 2 0 1 0 11 39 2 2 0 1 0 11 35zM29 31a1 1 0 0 0 1 1h4a1 1 0 0 0 0-2H30A1 1 0 0 0 29 31z"/></svg>