<svg xmlns="http://www.w3.org/2000/svg"  viewBox="0 0 64 64" width="512px" height="512px"><path fill="#efd8be" d="M13 11H51V17H13zM15 5H49V11H15z"/><path fill="#acb7d0" d="M61 43L42 43 37 47 27 47 22.313 43 3 43 9 29 55 29z"/><path fill="#faefde" d="M11 17H53V47H11z"/><path fill="#fff7f0" d="M53 17L53 47 22.225 47.225 52.46 17z"/><path fill="#cda1a7" d="M59,59H5c-1.105,0-2-0.895-2-2V43h19.313L26,47h12.438L42,43h19v14C61,58.105,60.105,59,59,59z"/><path fill="#deb4ba" d="M4 46h21.078l-1.843-2H4c-.552 0-1 .448-1 1C3 45.552 3.448 46 4 46zM60 44H41.11l-1.781 2H60c.552 0 1-.448 1-1C61 44.448 60.552 44 60 44z"/><path fill="#fff7f0" d="M48.06 17L22.06 43 16.06 43 42.06 17zM39.06 17L13.07 43 10.07 43 36.06 17z"/><path fill="#fff" d="M21.502 29.996L22.74 32.26 25.004 33.498 22.74 34.736 21.502 37 20.264 34.736 18 33.498 20.264 32.26zM45.581 23L46.436 24.564 48 25.419 46.436 26.274 45.581 27.838 44.726 26.274 43.162 25.419 44.726 24.564zM40.648 34L41.231 35.065 42.296 35.648 41.231 36.231 40.648 37.296 40.065 36.231 39 35.648 40.065 35.065z"/><g><path fill="#8d6c9f" d="M61.472,39.708l-5.025-10.05c-0.476-0.952-1.401-1.561-2.447-1.642V18c0-1.103-0.897-2-2-2v-4 c0-1.103-0.897-2-2-2V6c0-1.103-0.897-2-2-2H16c-1.103,0-2,0.897-2,2v4c-1.103,0-2,0.897-2,2v4c-1.103,0-2,0.897-2,2v10.016 c-1.047,0.081-1.971,0.69-2.447,1.642l-5.025,10.05C2.183,40.399,2,41.172,2,41.944V57c0,1.654,1.346,3,3,3h54c1.654,0,3-1.346,3-3 V41.944C62,41.172,61.817,40.399,61.472,39.708z M16,6h32v4H16V6z M14,12h36v4H14V12z M4.317,40.603l5.025-10.05 c0.134-0.268,0.376-0.452,0.658-0.52V39c0,0.552,0.448,1,1,1s1-0.448,1-1V18h40v21c0,0.552,0.448,1,1,1s1-0.448,1-1v-8.967 c0.282,0.068,0.524,0.252,0.658,0.52l5.025,10.05C59.891,41.017,60,41.481,60,41.944V42H41.829c-0.801,0-1.555,0.312-2.122,0.879 l-2.828,2.828C36.69,45.896,36.438,46,36.171,46h-8.343c-0.267,0-0.519-0.104-0.708-0.293l-2.828-2.828 C23.727,42.312,22.973,42,22.171,42H4v-0.056C4,41.481,4.109,41.017,4.317,40.603z M59,58H5c-0.551,0-1-0.449-1-1V44h18.171 c0.267,0,0.519,0.104,0.708,0.293l2.828,2.828C26.273,47.688,27.027,48,27.829,48h8.343c0.801,0,1.555-0.312,2.122-0.879 l2.828-2.828C41.31,44.104,41.562,44,41.829,44H60v13C60,57.551,59.551,58,59,58z"/><path fill="#8d6c9f" d="M7 50c-.552 0-1 .448-1 1v2c0 .552.448 1 1 1s1-.448 1-1v-2C8 50.448 7.552 50 7 50zM12 50c-.552 0-1 .448-1 1v2c0 .552.448 1 1 1s1-.448 1-1v-2C13 50.448 12.552 50 12 50zM17 50c-.552 0-1 .448-1 1v2c0 .552.448 1 1 1s1-.448 1-1v-2C18 50.448 17.552 50 17 50zM22 50c-.552 0-1 .448-1 1v2c0 .552.448 1 1 1s1-.448 1-1v-2C23 50.448 22.552 50 22 50zM27 50c-.552 0-1 .448-1 1v2c0 .552.448 1 1 1s1-.448 1-1v-2C28 50.448 27.552 50 27 50zM32 50c-.552 0-1 .448-1 1v2c0 .552.448 1 1 1s1-.448 1-1v-2C33 50.448 32.552 50 32 50zM37 50c-.552 0-1 .448-1 1v2c0 .552.448 1 1 1s1-.448 1-1v-2C38 50.448 37.552 50 37 50zM42 50c-.552 0-1 .448-1 1v2c0 .552.448 1 1 1s1-.448 1-1v-2C43 50.448 42.552 50 42 50zM47 50c-.552 0-1 .448-1 1v2c0 .552.448 1 1 1s1-.448 1-1v-2C48 50.448 47.552 50 47 50zM52 50c-.552 0-1 .448-1 1v2c0 .552.448 1 1 1s1-.448 1-1v-2C53 50.448 52.552 50 52 50zM57 50c-.552 0-1 .448-1 1v2c0 .552.448 1 1 1s1-.448 1-1v-2C58 50.448 57.552 50 57 50zM31 24h6c.552 0 1-.448 1-1s-.448-1-1-1h-6c-.552 0-1 .448-1 1S30.448 24 31 24zM17 24h10c.552 0 1-.448 1-1s-.448-1-1-1H17c-.552 0-1 .448-1 1S16.448 24 17 24zM17 28h15c.552 0 1-.448 1-1s-.448-1-1-1H17c-.552 0-1 .448-1 1S16.448 28 17 28z"/></g></svg>