<svg xmlns="http://www.w3.org/2000/svg"  viewBox="0 0 64 64" width="512px" height="512px"><path fill="#f9e3ae" d="M11.944,50c-0.728,0-1.367-0.378-1.711-1.013l-0.004-0.007c-0.336-0.633-0.3-1.365,0.099-1.959 c0,0,0,0,3.982-7.002c0.637-1.121,1.187-2.311,1.348-3.589l1.874-13.772C18.298,16.582,23.539,12,29.723,12H32c0,0,2.277,0,2.277,0 c6.184,0,11.424,4.582,12.19,10.658l1.874,13.772c0.162,1.278,0.711,2.468,1.348,3.589c3.982,7.002,3.982,7.002,3.982,7.002 c0.399,0.594,0.435,1.326,0.099,1.959l-0.004,0.007C53.424,49.622,52.784,50,52.056,50H11.944z"/><path fill="#faefde" d="M43.364,16c-2.262-2.464-5.514-4-9.087-4H32h-2.277c-3.573,0-6.825,1.536-9.087,4L20,17h24L43.364,16 z"/><path fill="#f6d397" d="M49.69,40.018c-0.003-0.006-0.006-0.012-0.01-0.018H14.32c-0.003,0.006-0.006,0.012-0.01,0.018 c-3.982,7.003-3.982,7.003-3.982,7.003c-0.399,0.594-0.435,1.326-0.099,1.959l0.004,0.007C10.576,49.622,11.216,50,11.944,50h40.112 c0.728,0,1.367-0.378,1.711-1.013l0.004-0.007c0.336-0.633,0.3-1.365-0.099-1.959C53.673,47.021,53.673,47.021,49.69,40.018z"/><path fill="#c2cde7" d="M38,50c0,3.314-2.686,6-6,6s-6-2.686-6-6"/><path fill="#8d6c9f" d="M4.897 41c-.354 0-.696-.188-.877-.519C-1.204 30.966-1.189 19.103 4.057 9.52 4.322 9.036 4.93 8.857 5.414 9.123c.485.265.663.873.397 1.357C.89 19.47.875 30.597 5.773 39.519c.266.484.089 1.092-.395 1.358C5.225 40.96 5.06 41 4.897 41zM52.056 51H11.944c-1.101 0-2.069-.574-2.59-1.536-.521-.979-.464-2.095.144-3l3.943-6.939c.49-.862 1.072-2.006 1.226-3.22l1.875-13.781C17.369 15.958 23.037 11 29.723 11h4.555c6.686 0 12.354 4.958 13.183 11.533l1.873 13.762c.155 1.223.737 2.368 1.227 3.229l3.982 7.003c.569.842.625 1.958.113 2.922C54.125 50.426 53.157 51 52.056 51zM29.723 13c-5.681 0-10.495 4.206-11.198 9.783l-1.875 13.782c-.196 1.553-.889 2.927-1.47 3.949l-3.982 7.002c-.231.35-.248.689-.085.996C11.281 48.822 11.583 49 11.944 49h40.112c.36 0 .663-.178.832-.489.164-.306.146-.646-.045-.932l-4.021-7.066c-.582-1.021-1.274-2.395-1.472-3.958l-1.873-13.763C44.772 17.206 39.958 13 34.277 13H29.723z"/><path fill="#8d6c9f" d="M36.458 13c-.417 0-.807-.264-.948-.681l-1.113-3.299C34.382 9.015 34.345 9 34.292 9h-4.583c-.052 0-.088.014-.107.025L28.49 12.32c-.178.522-.742.804-1.268.628-.523-.177-.804-.744-.628-1.268l1.196-3.522C28.127 7.455 28.88 7 29.708 7h4.583c.828 0 1.581.455 1.917 1.158l.046.112 1.15 3.411c.176.523-.105 1.091-.628 1.268C36.671 12.983 36.563 13 36.458 13zM36 41H15c-.552 0-1-.448-1-1s.448-1 1-1h21c.552 0 1 .448 1 1S36.552 41 36 41zM45 41h-5c-.552 0-1-.448-1-1s.448-1 1-1h5c.552 0 1 .448 1 1S45.552 41 45 41zM17 47c-.552 0-1-.448-1-1v-2c0-.552.448-1 1-1s1 .448 1 1v2C18 46.552 17.552 47 17 47zM22 47c-.552 0-1-.448-1-1v-2c0-.552.448-1 1-1s1 .448 1 1v2C23 46.552 22.552 47 22 47zM27 47c-.552 0-1-.448-1-1v-2c0-.552.448-1 1-1s1 .448 1 1v2C28 46.552 27.552 47 27 47zM32 47c-.552 0-1-.448-1-1v-2c0-.552.448-1 1-1s1 .448 1 1v2C33 46.552 32.552 47 32 47zM37 47c-.552 0-1-.448-1-1v-2c0-.552.448-1 1-1s1 .448 1 1v2C38 46.552 37.552 47 37 47zM42 47c-.552 0-1-.448-1-1v-2c0-.552.448-1 1-1s1 .448 1 1v2C43 46.552 42.552 47 42 47zM47 47c-.552 0-1-.448-1-1v-2c0-.552.448-1 1-1s1 .448 1 1v2C48 46.552 47.552 47 47 47zM32 57c-3.86 0-7-3.14-7-7 0-.552.448-1 1-1s1 .448 1 1c0 2.757 2.243 5 5 5s5-2.243 5-5c0-.552.448-1 1-1s1 .448 1 1C39 53.86 35.86 57 32 57zM59.085 41c-.166 0-.334-.041-.489-.128-.481-.271-.653-.88-.382-1.361 4.955-8.818 4.949-19.942-.017-29.031-.265-.485-.086-1.092.398-1.357.485-.267 1.092-.086 1.357.398 5.293 9.688 5.295 21.555.005 30.969C59.774 40.816 59.435 41 59.085 41zM53.934 38c-.163 0-.327-.04-.48-.123-.484-.266-.662-.874-.396-1.358C54.982 33.008 56 29.025 56 25s-1.018-8.008-2.942-11.519c-.266-.484-.088-1.092.396-1.358.485-.265 1.092-.088 1.358.396C56.897 16.324 58 20.64 58 25s-1.103 8.676-3.188 12.481C54.629 37.813 54.287 38 53.934 38zM10.066 38c-.354 0-.696-.188-.878-.519C7.103 33.676 6 29.36 6 25s1.103-8.676 3.188-12.481c.266-.484.872-.661 1.358-.396.484.266.662.874.396 1.358C9.018 16.992 8 20.975 8 25s1.018 8.008 2.942 11.519c.266.484.088 1.092-.396 1.358C10.394 37.96 10.229 38 10.066 38zM37.999 19.014c-.172 0-.347-.044-.506-.138C36.52 18.303 35.408 18 34.277 18H34c-.552 0-1-.448-1-1s.448-1 1-1h.277c1.487 0 2.95.398 4.23 1.152.476.28.635.894.354 1.369C38.675 18.838 38.342 19.014 37.999 19.014zM41.44 24c-.476 0-.898-.341-.984-.826-.113-.639-.299-1.22-.553-1.724-.249-.494-.05-1.095.443-1.343.495-.25 1.096-.05 1.343.443.342.679.589 1.444.736 2.276.096.544-.267 1.063-.811 1.159C41.557 23.995 41.498 24 41.44 24z"/></svg>