<svg xmlns="http://www.w3.org/2000/svg"  viewBox="0 0 64 64" width="512px" height="512px"><path fill="#faefde" d="M56 15L5 15 13 9 49 9 56 15z"/><rect width="52" height="42" x="5" y="15" fill="#efd8be" rx="1" ry="1"/><path fill="#cda1a7" d="M9,52H53a4,4,0,0,1,4,4v1a0,0,0,0,1,0,0H5a0,0,0,0,1,0,0V56A4,4,0,0,1,9,52Z"/><path fill="#8d6c9f" d="M16 50.06a1 1 0 0 0-1 1v2a1 1 0 0 0 2 0v-2A1 1 0 0 0 16 50.06zM11 50.06a1 1 0 0 0-1 1v2a1 1 0 0 0 2 0v-2A1 1 0 0 0 11 50.06zM21 50.06a1 1 0 0 0-1 1v2a1 1 0 0 0 2 0v-2A1 1 0 0 0 21 50.06zM26 50.06a1 1 0 0 0-1 1v2a1 1 0 0 0 2 0v-2A1 1 0 0 0 26 50.06zM31 50.06a1 1 0 0 0-1 1v2a1 1 0 0 0 2 0v-2A1 1 0 0 0 31 50.06zM36 50.06a1 1 0 0 0-1 1v2a1 1 0 0 0 2 0v-2A1 1 0 0 0 36 50.06zM41 50.06a1 1 0 0 0-1 1v2a1 1 0 0 0 2 0v-2A1 1 0 0 0 41 50.06zM46 50.06a1 1 0 0 0-1 1v2a1 1 0 0 0 2 0v-2A1 1 0 0 0 46 50.06zM51 50.06a1 1 0 0 0-1 1v2a1 1 0 0 0 2 0v-2A1 1 0 0 0 51 50.06zM51 14.06H47a1 1 0 0 0 0 2h4a1 1 0 0 0 0-2z"/><path fill="#8d6c9f" d="M56,13,50.67,9h0a5,5,0,0,0-3-1H14.33a5,5,0,0,0-3,1L6,13a5,5,0,0,0-2,4V55a3,3,0,0,0,3,3H55a3,3,0,0,0,3-3V17A5,5,0,0,0,56,13ZM12.53,10.6a3,3,0,0,1,1.8-.6H30v4.06H7.92ZM56,55a1,1,0,0,1-1,1H7a1,1,0,0,1-1-1V17a3,3,0,0,1,.17-.94H43a1,1,0,0,0,0-2H32V10H47.67a3,3,0,0,1,1.8.6l5.33,4A3,3,0,0,1,56,17Z"/><path fill="#8d6c9f" d="M41 42H21a1 1 0 0 0 0 2H41a1 1 0 0 0 0-2zM27 22h8a1 1 0 0 0 0-2H27a1 1 0 0 0 0 2zM22.71 32.71L24 31.41V39a1 1 0 0 0 2 0V31.41l1.29 1.29a1 1 0 0 0 1.41-1.41l-3-3a1 1 0 0 0-1.41 0l-3 3a1 1 0 0 0 1.41 1.41zM33.29 32.71a1 1 0 0 0 1.41 0L36 31.41V39a1 1 0 0 0 2 0V31.41l1.29 1.29a1 1 0 0 0 1.41-1.41l-3-3a1 1 0 0 0-1.41 0l-3 3A1 1 0 0 0 33.29 32.71z"/></svg>