<svg xmlns="http://www.w3.org/2000/svg"  viewBox="0 0 64 64" width="512px" height="512px"><path fill="#ced8ed" d="M5 7H59V17H5z"/><path fill="#c5e4fa" d="M5 17H59V53H5z"/><path fill="#e3f2ff" d="M39.76 53L59 33.76 59 17.08 56.43 17.08 20.51 53 39.76 53zM8.9 53L16.6 53 52.52 17.08 44.82 17.08 8.9 53zM5 51.2L5 52 5.48 52 40.4 17.08 39.12 17.08 5 51.2z"/><path fill="#ed7899" d="M33 35H39V49H33z"/><path fill="#72caaf" d="M43 41H49V49H43z"/><path fill="#ffeb9b" d="M23 43H29V49H23z"/><path fill="#85cbf8" d="M13 39H19V49H13z"/><path fill="#fff8f8" d="M11.5 20L12.74 22.26 15 23.5 12.74 24.74 11.5 27 10.26 24.74 8 23.5 10.26 22.26 11.5 20zM47.42 20.16L48.27 21.73 49.84 22.58 48.27 23.44 47.42 25 46.56 23.44 45 22.58 46.56 21.73 47.42 20.16zM24.65 23.7L25.23 24.77 26.3 25.35 25.23 25.93 24.65 27 24.07 25.93 23 25.35 24.07 24.77 24.65 23.7zM16 28A2 2 0 1 0 16 32 2 2 0 1 0 16 28zM26 32A2 2 0 1 0 26 36 2 2 0 1 0 26 32zM36 23A2 2 0 1 0 36 27 2 2 0 1 0 36 23zM46 29A2 2 0 1 0 46 33 2 2 0 1 0 46 29z"/><path fill="#8d6c9f" d="M51 48H50V41a1 1 0 0 0-1-1H43a1 1 0 0 0-1 1v7H40V35a1 1 0 0 0-1-1H33a1 1 0 0 0-1 1V48H30V43a1 1 0 0 0-1-1H23a1 1 0 0 0-1 1v5H20V39a1 1 0 0 0-1-1H13a1 1 0 0 0-1 1v9H11a1 1 0 0 0 0 2H51a1 1 0 0 0 0-2zM14 48V40h4v8zm10 0V44h4v4zm10 0V36h4V48zm10 0V42h4v6zM55 16H51a1 1 0 0 0 0 2h4a1 1 0 0 0 0-2z"/><path fill="#8d6c9f" d="M57,6H7A3,3,0,0,0,4,9V51a3,3,0,0,0,3,3H57a3,3,0,0,0,3-3V9A3,3,0,0,0,57,6Zm1,45a1,1,0,0,1-1,1H7a1,1,0,0,1-1-1V18H47a1,1,0,0,0,0-2H6V9A1,1,0,0,1,7,8H57a1,1,0,0,1,1,1Z"/><path fill="#8d6c9f" d="M20 10a1 1 0 0 0-1 1v2a1 1 0 0 0 2 0V11A1 1 0 0 0 20 10zM15 10a1 1 0 0 0-1 1v2a1 1 0 0 0 2 0V11A1 1 0 0 0 15 10zM10 10a1 1 0 0 0-1 1v2a1 1 0 0 0 2 0V11A1 1 0 0 0 10 10zM35 10a1 1 0 0 0-1 1v2a1 1 0 0 0 2 0V11A1 1 0 0 0 35 10zM40 10a1 1 0 0 0-1 1v2a1 1 0 0 0 2 0V11A1 1 0 0 0 40 10zM45 10a1 1 0 0 0-1 1v2a1 1 0 0 0 2 0V11A1 1 0 0 0 45 10zM50 14a1 1 0 0 0 1-1V11a1 1 0 0 0-2 0v2A1 1 0 0 0 50 14zM55 10a1 1 0 0 0-1 1v2a1 1 0 0 0 2 0V11A1 1 0 0 0 55 10zM25 10a1 1 0 0 0-1 1v2a1 1 0 0 0 2 0V11A1 1 0 0 0 25 10zM30 10a1 1 0 0 0-1 1v2a1 1 0 0 0 2 0V11A1 1 0 0 0 30 10zM54.29 21.29l-7 7a2.92 2.92 0 0 0-3.18.39l-5.16-3.1a3 3 0 1 0-5.71.55l-5.81 5.23a2.93 2.93 0 0 0-3.66.65L19 30.12S19 30 19 30a3 3 0 0 0-6 0 3 3 0 0 0 .13.82L8.42 34.19a1 1 0 0 0 1.16 1.63l4.7-3.36a3 3 0 0 0 4-.48L23 33.88S23 34 23 34a3 3 0 1 0 5.77-1.15l5.81-5.23a2.91 2.91 0 0 0 3.32-.32l5.16 3.1A3 3 0 1 0 49 31a3 3 0 0 0-.3-1.29l7-7a1 1 0 0 0-1.41-1.41zM16 31.17A1.17 1.17 0 1 1 17.17 30 1.17 1.17 0 0 1 16 31.17zm10 4A1.17 1.17 0 1 1 27.17 34 1.17 1.17 0 0 1 26 35.17zm10-9A1.17 1.17 0 1 1 37.17 25 1.17 1.17 0 0 1 36 26.17zm10 6A1.21 1.21 0 1 1 47.21 31 1.21 1.21 0 0 1 46 32.21z"/></svg>