<svg xmlns="http://www.w3.org/2000/svg"  viewBox="0 0 64 64" width="512px" height="512px"><path fill="#faefde" d="M13.243,4.938H42c1.657,0,3,1.343,3,3v48c0,1.657-1.343,3-3,3H4c-1.657,0-3-1.343-3-3V17.18 c0-0.796,0.316-1.559,0.879-2.121l9.243-9.242C11.684,5.254,12.447,4.938,13.243,4.938z"/><path fill="#fff7f0" d="M1 59L.853 49.54 44.336 6.057 45 29 15 59zM.853 39.147L35.063 4.937 40.813 5.187 1 45zM.853 33.147L29 5 32 5 .853 36.147z"/><path fill="#fff" d="M35.502 12.996L36.74 15.26 39.004 16.498 36.74 17.736 35.502 20 34.264 17.736 32 16.498 34.264 15.26zM20.419 11L21.274 12.564 22.838 13.419 21.274 14.274 20.419 15.838 19.564 14.274 18 13.419 19.564 12.564zM6.648 42L7.231 43.065 8.296 43.648 7.231 44.231 6.648 45.296 6.065 44.231 5 43.648 6.065 43.065z"/><path fill="#f9e3ae" d="M29.24 23.815H43.382V51.564H29.24z" transform="rotate(45.001 36.311 37.689)"/><path fill="#f6d397" d="M33.464 26.272H42.656V52.607H33.464z" transform="rotate(45.001 38.061 39.44)"/><path fill="#ed7899" d="M57.507,26.493l-9.968-9.968l3.371-3.371c1.172-1.172,3.071-1.172,4.243,0l5.725,5.725 c1.172,1.172,1.172,3.071,0,4.243L57.507,26.493z"/><path fill="#bbdef9" d="M13 5L13 17 1 17z"/><path fill="#c2cde7" d="M41.74 20.507H55.882000000000005V29.871000000000002H41.74z" transform="rotate(45.001 48.811 25.189)"/><path fill="#faefde" d="M20 51.643L20.786 43 26.286 43.786 27.071 46.143 29.363 47.321 31 53.214 21.571 53.214z"/><path fill="#8d6c9f" d="M29 24h4c.552 0 1-.448 1-1s-.448-1-1-1h-4c-.552 0-1 .448-1 1S28.448 24 29 24zM11 24h14c.552 0 1-.448 1-1s-.448-1-1-1H11c-.552 0-1 .448-1 1S10.448 24 11 24zM11 28h18c.552 0 1-.448 1-1s-.448-1-1-1H11c-.552 0-1 .448-1 1S10.448 28 11 28zM20 37c0-.552-.448-1-1-1h-8c-.552 0-1 .448-1 1s.448 1 1 1h8C19.552 38 20 37.552 20 37zM11 34h13c.552 0 1-.448 1-1s-.448-1-1-1H11c-.552 0-1 .448-1 1S10.448 34 11 34zM5 50c-.552 0-1 .448-1 1v2c0 .552.448 1 1 1s1-.448 1-1v-2C6 50.448 5.552 50 5 50zM10 50c-.552 0-1 .448-1 1v2c0 .552.448 1 1 1s1-.448 1-1v-2C11 50.448 10.552 50 10 50zM15 50c-.552 0-1 .448-1 1v2c0 .552.448 1 1 1s1-.448 1-1v-2C16 50.448 15.552 50 15 50zM40 54c.552 0 1-.448 1-1v-2c0-.552-.448-1-1-1s-1 .448-1 1v2C39 53.552 39.448 54 40 54z"/><path fill="#8d6c9f" d="M63,20.657c0-1.068-0.416-2.073-1.172-2.828l-5.657-5.657c-1.511-1.512-4.146-1.512-5.657,0 l-2.777,2.777c0,0-0.001,0.001-0.001,0.001l-0.232,0.233l-0.524,0.524c-0.001,0.001-0.001,0.002-0.002,0.003L46,16.69V7 c0-1.654-1.346-3-3-3H13.657c-1.335,0-2.591,0.52-3.535,1.464l-8.658,8.657C0.52,15.066,0,16.322,0,17.657V57c0,1.654,1.346,3,3,3 l40,0c1.654,0,3-1.346,3-3V39.341L58.294,27.02c0,0,0.001-0.001,0.001-0.001l3.533-3.533C62.584,22.73,63,21.725,63,20.657z M54.755,27.734c-0.392-0.37-1.007-0.368-1.39,0.016l-1.414,1.414c-0.385,0.385-0.386,1.002-0.013,1.394l-1.416,1.419l-8.484-8.484 l5.651-5.663l8.484,8.484L54.755,27.734z M31.456,51.085l-0.453-4.368c-0.053-0.51-0.482-0.897-0.995-0.897H28.18v-1.415 l5.364-5.364c0.391-0.391,0.391-1.023,0-1.414s-1.023-0.391-1.414,0l-5.319,5.319l-3.789-0.399l17.602-17.639l8.484,8.484 L31.456,51.085z M24.721,52.846l-3.563-3.563l0.565-4.861l4.457,0.469v1.928c0,0.552,0.448,1,1,1h1.927l0.468,4.512L24.721,52.846z M11.536,6.878C11.678,6.737,11.834,6.611,12,6.501V15c0,0.551-0.449,1-1,1H2.499c0.11-0.165,0.236-0.321,0.38-0.465L11.536,6.878z M44,57c0,0.551-0.449,1-1,1L3,58c-0.551,0-1-0.449-1-1V18h9c1.654,0,3-1.346,3-3V6h29c0.551,0,1,0.449,1,1v11.694l-4.044,4.053 c-0.015,0.013-0.033,0.017-0.047,0.031c-0.014,0.014-0.019,0.033-0.032,0.048l-19.739,19.78c-0.159,0.159-0.259,0.368-0.285,0.591 l-0.736,6.325l-0.705,4.934c-0.045,0.312,0.06,0.626,0.283,0.849c0.189,0.189,0.444,0.293,0.707,0.293 c0.047,0,0.094-0.003,0.142-0.01l4.921-0.703l6.385-0.677c0.228-0.024,0.44-0.126,0.603-0.288L34,51.367V53c0,0.552,0.448,1,1,1 s1-0.448,1-1v-2c0-0.445-0.295-0.809-0.697-0.939L44,41.345V57z M60.414,22.071l-2.828,2.828l-8.485-8.485l0.051-0.051 c0,0,0.001-0.001,0.001-0.001l2.776-2.776c0.756-0.756,2.073-0.756,2.829,0l5.657,5.657C60.792,19.621,61,20.123,61,20.657 S60.792,21.693,60.414,22.071z"/><path fill="#8d6c9f" d="M46.294 20.679l-1.415 1.414c-.391.39-.391 1.023 0 1.414.195.195.451.293.707.293s.512-.098.707-.293l1.415-1.414c.391-.39.391-1.023 0-1.414S46.685 20.289 46.294 20.679zM49.83 24.214l-1.414 1.415c-.391.391-.391 1.024 0 1.414.195.195.451.293.707.293s.512-.098.707-.293l1.414-1.415c.391-.391.391-1.024 0-1.414C50.853 23.824 50.219 23.824 49.83 24.214zM39.201 31.971c-.391-.391-1.023-.391-1.414 0l-2.829 2.828c-.391.39-.391 1.023 0 1.414.195.195.451.293.707.293s.512-.098.707-.293l2.829-2.828C39.592 32.995 39.592 32.361 39.201 31.971z"/></svg>