<svg xmlns="http://www.w3.org/2000/svg"  viewBox="0 0 64 64" width="512px" height="512px"><path fill="#c2cde7" d="M51,56H13c-1.7,0-3-1.3-3-3V11c0-1.7,1.3-3,3-3h38c1.7,0,3,1.3,3,3v42C54,54.7,52.7,56,51,56z"/><path fill="#bbdef9" d="M54,24H10V11c0-1.7,1.3-3,3-3h38c1.7,0,3,1.3,3,3V24z"/><path fill="#def0ff" d="M23.2 24L35.8 8 51.8 8 39.2 24zM16.2 24L28.8 8 31.8 8 19.2 24zM11.3 24L24 8 25 8 12.3 24z"/><path fill="#72caaf" d="M40 34H48V50H40z"/><path fill="#85cbf8" d="M28 34H36V40H28zM28 44H36V50H28zM16 44H24V50H16z"/><path fill="#ed7899" d="M16 34H24V40H16z"/><path fill="#ffeb9b" d="M7 19H10V29H7zM54 19H57V29H54z"/><path fill="#8d6c9f" d="M56,18h-1v-8c0-1.7-1.3-3-3-3H12c-1.7,0-3,1.3-3,3v8H8c-1.1,0-2,0.9-2,2v8c0,1.1,0.9,2,2,2h1v24 c0,1.7,1.3,3,3,3h40c1.7,0,3-1.3,3-3V30h1c1.1,0,2-0.9,2-2v-8C58,18.8,57.1,18,56,18z M11,10c0-0.6,0.4-1,1-1h40c0.6,0,1,0.4,1,1 v10v3H11v-3V10z M8,28v-8h1v8H8z M53,54c0,0.6-0.4,1-1,1H12c-0.6,0-1-0.4-1-1V28v-3h42v3V54z M56,28h-1v-8h1V28z"/><path fill="#8d6c9f" d="M23 33h-6c-1.1 0-2 .9-2 2v4c0 1.1.9 2 2 2h6c1.1 0 2-.9 2-2v-4C25 33.9 24.1 33 23 33zM23 39h-6v-4l0 0h6V39zM35 33h-6c-1.1 0-2 .9-2 2v4c0 1.1.9 2 2 2h6c1.1 0 2-.9 2-2v-4C37 33.9 36.1 33 35 33zM35 39h-6v-4l0 0h6V39zM35 43h-6c-1.1 0-2 .9-2 2v4c0 1.1.9 2 2 2h6c1.1 0 2-.9 2-2v-4C37 43.9 36.1 43 35 43zM35 49h-6v-4l0 0h6V49zM47 33h-6c-1.1 0-2 .9-2 2v14c0 1.1.9 2 2 2h6c1.1 0 2-.9 2-2V35C49 33.9 48.1 33 47 33zM47 49h-6V35l0 0h6V49zM23 43h-6c-1.1 0-2 .9-2 2v4c0 1.1.9 2 2 2h6c1.1 0 2-.9 2-2v-4C25 43.9 24.1 43 23 43zM23 49h-6v-4l0 0h6V49zM17 31c.6 0 1-.4 1-1v-2c0-.6-.4-1-1-1s-1 .4-1 1v2C16 30.6 16.4 31 17 31zM22 31c.6 0 1-.4 1-1v-2c0-.6-.4-1-1-1s-1 .4-1 1v2C21 30.6 21.4 31 22 31zM28 30v-2c0-.6-.4-1-1-1s-1 .4-1 1v2c0 .6.4 1 1 1S28 30.6 28 30zM32 31c.6 0 1-.4 1-1v-2c0-.6-.4-1-1-1s-1 .4-1 1v2C31 30.6 31.4 31 32 31zM37 27c-.6 0-1 .4-1 1v2c0 .6.4 1 1 1s1-.4 1-1v-2C38 27.4 37.6 27 37 27zM42 31c.6 0 1-.4 1-1v-2c0-.6-.4-1-1-1s-1 .4-1 1v2C41 30.6 41.4 31 42 31zM47 31c.6 0 1-.4 1-1v-2c0-.6-.4-1-1-1s-1 .4-1 1v2C46 30.6 46.4 31 47 31zM32.5 14.9l.5-.3V19c0 .6.4 1 1 1s1-.4 1-1v-6c0-.3-.2-.7-.5-.8-.3-.2-.7-.2-1 0l-2 1C31 13.4 30.8 14 31 14.5 31.4 14.9 32 15.1 32.5 14.9zM45.5 14.9l.5-.3V19c0 .6.4 1 1 1s1-.4 1-1v-6c0-.3-.2-.7-.5-.8-.3-.2-.7-.2-1 0l-2 1C44 13.4 43.8 14 44 14.5 44.4 14.9 45 15.1 45.5 14.9zM38 17h1v1c0 .6.4 1 1 1s1-.4 1-1v-1h1c.6 0 1-.4 1-1s-.4-1-1-1h-1v-1c0-.6-.4-1-1-1s-1 .4-1 1v1h-1c-.6 0-1 .4-1 1S37.4 17 38 17z"/><path fill="#f9e3ae" d="M51 38A12 12 0 1 0 51 62A12 12 0 1 0 51 38Z"/><path fill="#8d6c9f" d="M51,37c-7.168,0-13,5.832-13,13s5.832,13,13,13s13-5.832,13-13S58.168,37,51,37z M51,61 c-6.065,0-11-4.935-11-11s4.935-11,11-11s11,4.935,11,11S57.065,61,51,61z M48,47c0,1.103,0.897,2,2,2v-2c0-0.552,0.447-1,1-1 s1,0.448,1,1v2c2.206,0,4,1.794,4,4s-1.794,4-4,4v1c0,0.552-0.447,1-1,1s-1-0.448-1-1v-1c-2.206,0-4-1.794-4-4c0-0.552,0.447-1,1-1 s1,0.448,1,1c0,1.103,0.897,2,2,2v-2c0-0.552,0.447-1,1-1s1,0.448,1,1v2c1.103,0,2-0.897,2-2s-0.897-2-2-2h-2c-2.206,0-4-1.794-4-4 s1.794-4,4-4v-1c0-0.552,0.447-1,1-1s1,0.448,1,1v1c2.206,0,4,1.794,4,4c0,0.552-0.447,1-1,1s-1-0.448-1-1c0-1.103-0.897-2-2-2h-2 C48.897,45,48,45.897,48,47z"/></svg>