<svg xmlns="http://www.w3.org/2000/svg"  viewBox="0 0 64 64" width="512px" height="512px"><path fill="#faefde" d="M56 13L5 13 13 7 49 7z"/><path fill="#efd8be" d="M56,13H6c-0.552,0-1,0.448-1,1v40c0,0.552,0.448,1,1,1h50c0.552,0,1-0.448,1-1V14 C57,13.448,56.552,13,56,13z"/><path fill="#cda1a7" d="M57 55H5v-1c0-2.209 1.791-4 4-4h44c2.209 0 4 1.791 4 4V55zM36 23H26c-1.105 0-2-.895-2-2v0c0-1.105.895-2 2-2h10c1.105 0 2 .895 2 2v0C38 22.105 37.105 23 36 23z"/><path fill="#c5e4fa" d="M35 41H39V45H35zM23 41H27V45H23zM23 29H27V33H23z"/><path fill="#8d6c9f" d="M16 48.057c-.552 0-1 .448-1 1v2c0 .552.448 1 1 1s1-.448 1-1v-2C17 48.505 16.552 48.057 16 48.057zM11 48.057c-.552 0-1 .448-1 1v2c0 .552.448 1 1 1s1-.448 1-1v-2C12 48.505 11.552 48.057 11 48.057zM21 48.057c-.552 0-1 .448-1 1v2c0 .552.448 1 1 1s1-.448 1-1v-2C22 48.505 21.552 48.057 21 48.057zM26 48.057c-.552 0-1 .448-1 1v2c0 .552.448 1 1 1s1-.448 1-1v-2C27 48.505 26.552 48.057 26 48.057zM31 52.057c.552 0 1-.448 1-1v-2c0-.552-.448-1-1-1s-1 .448-1 1v2C30 51.609 30.448 52.057 31 52.057zM40 51.057c0 .552.448 1 1 1s1-.448 1-1v-2c0-.552-.448-1-1-1s-1 .448-1 1V51.057zM46 52.057c.552 0 1-.448 1-1v-2c0-.552-.448-1-1-1s-1 .448-1 1v2C45 51.609 45.448 52.057 46 52.057zM51 52.057c.552 0 1-.448 1-1v-2c0-.552-.448-1-1-1s-1 .448-1 1v2C50 51.609 50.448 52.057 51 52.057zM36 48.057c-.552 0-1 .448-1 1v2c0 .552.448 1 1 1s1-.448 1-1v-2C37 48.505 36.552 48.057 36 48.057zM47 14.057h4c.552 0 1-.448 1-1s-.448-1-1-1h-4c-.552 0-1 .448-1 1S46.448 14.057 47 14.057zM26 24h10c1.654 0 3-1.346 3-3s-1.346-3-3-3H26c-1.654 0-3 1.346-3 3S24.346 24 26 24zM26 20h10c.551 0 1 .449 1 1s-.449 1-1 1H26c-.551 0-1-.449-1-1S25.449 20 26 20zM7 58H2v-5c0-.552-.448-1-1-1s-1 .448-1 1v6c0 .552.448 1 1 1h6c.552 0 1-.448 1-1S7.552 58 7 58zM61 52c-.552 0-1 .448-1 1v5h-5c-.552 0-1 .448-1 1s.448 1 1 1h6c.552 0 1-.448 1-1v-6C62 52.448 61.552 52 61 52z"/><path fill="#8d6c9f" d="M1,30h3v23c0,1.654,1.346,3,3,3h48c1.654,0,3-1.346,3-3V30h3c0.552,0,1-0.448,1-1s-0.448-1-1-1h-3 V15c0-1.565-0.748-3.061-2-4l-5.333-4l0,0c-0.86-0.645-1.925-1-3-1H14.333c-1.075,0-2.14,0.355-3,1L6,11c-1.252,0.939-2,2.435-2,4 v13H1c-0.552,0-1,0.448-1,1S0.448,30,1,30z M56,53c0,0.551-0.449,1-1,1H7c-0.551,0-1-0.449-1-1V30h16v3c0,0.552,0.448,1,1,1h4 c0.552,0,1-0.448,1-1v-3h28V53z M24,30h2v2h-2V30z M12.533,8.6C13.049,8.213,13.688,8,14.333,8H30v4.057H7.923L12.533,8.6z M6,15 c0-0.326,0.071-0.64,0.173-0.943H43c0.552,0,1-0.448,1-1s-0.448-1-1-1H32V8h15.667c0.645,0,1.284,0.213,1.8,0.6l5.333,4 c0.751,0.563,1.2,1.461,1.2,2.4v13H27h-4H6V15z"/><path fill="#8d6c9f" d="M40 41c0-.552-.448-1-1-1h-4c-.552 0-1 .448-1 1v4c0 .552.448 1 1 1h4c.552 0 1-.448 1-1V41zM38 44h-2v-2h2V44zM27 40h-4c-.552 0-1 .448-1 1v4c0 .552.448 1 1 1h4c.552 0 1-.448 1-1v-4C28 40.448 27.552 40 27 40zM26 44h-2v-2h2V44z"/><path fill="#8d6c9f" d="M31 44c.552 0 1-.448 1-1v-5h3c.552 0 1-.448 1-1v-3h2v1c0 .552.448 1 1 1s1-.448 1-1v-2c0-.552-.448-1-1-1h-4c-.552 0-1 .448-1 1v3h-3c-.552 0-1 .448-1 1v6C30 43.552 30.448 44 31 44zM27 36h-4c-.552 0-1 .448-1 1s.448 1 1 1h4c.552 0 1-.448 1-1S27.552 36 27 36zM31 34c.552 0 1-.448 1-1v-1c0-.552-.448-1-1-1s-1 .448-1 1v1C30 33.552 30.448 34 31 34z"/></svg>