<svg xmlns="http://www.w3.org/2000/svg"  viewBox="0 0 64 64" width="512px" height="512px"><path fill="#faefde" d="M52 13L1 13 9 7 45 7z"/><path fill="#efd8be" d="M52,13H2c-0.552,0-1,0.448-1,1v40c0,0.552,0.448,1,1,1h50c0.552,0,1-0.448,1-1V14 C53,13.448,52.552,13,52,13z"/><path fill="#cda1a7" d="M53,55H1v-1c0-2.209,1.791-4,4-4h44c2.209,0,4,1.791,4,4V55z"/><path fill="#c2cde7" d="M31 31L52 31 48 27 52 23 63 34 52 45 48 41 52 37 31 37z"/><path fill="#cda1a7" d="M32,23H22c-1.105,0-2-0.895-2-2v0c0-1.105,0.895-2,2-2h10c1.105,0,2,0.895,2,2v0 C34,22.105,33.105,23,32,23z"/><path fill="#8d6c9f" d="M10 48.057c-.552 0-1 .448-1 1v2c0 .552.448 1 1 1s1-.448 1-1v-2C11 48.505 10.552 48.057 10 48.057zM5 48.057c-.552 0-1 .448-1 1v2c0 .552.448 1 1 1s1-.448 1-1v-2C6 48.505 5.552 48.057 5 48.057zM15 48.057c-.552 0-1 .448-1 1v2c0 .552.448 1 1 1s1-.448 1-1v-2C16 48.505 15.552 48.057 15 48.057zM20 48.057c-.552 0-1 .448-1 1v2c0 .552.448 1 1 1s1-.448 1-1v-2C21 48.505 20.552 48.057 20 48.057zM25 48.057c-.552 0-1 .448-1 1v2c0 .552.448 1 1 1s1-.448 1-1v-2C26 48.505 25.552 48.057 25 48.057zM30 48.057c-.552 0-1 .448-1 1v2c0 .552.448 1 1 1s1-.448 1-1v-2C31 48.505 30.552 48.057 30 48.057zM35 48.057c-.552 0-1 .448-1 1v2c0 .552.448 1 1 1s1-.448 1-1v-2C36 48.505 35.552 48.057 35 48.057zM40 48.057c-.552 0-1 .448-1 1v2c0 .552.448 1 1 1s1-.448 1-1v-2C41 48.505 40.552 48.057 40 48.057zM45 48.057c-.552 0-1 .448-1 1v2c0 .552.448 1 1 1s1-.448 1-1v-2C46 48.505 45.552 48.057 45 48.057zM50 48.057c-.552 0-1 .448-1 1v2c0 .552.448 1 1 1s1-.448 1-1v-2C51 48.505 50.552 48.057 50 48.057zM43 14.057h4c.552 0 1-.448 1-1s-.448-1-1-1h-4c-.552 0-1 .448-1 1S42.448 14.057 43 14.057z"/><path fill="#8d6c9f" d="M63.71,33.29L54,23.58V15c0-1.57-0.75-3.06-2-4l-5.33-4c-0.86-0.65-1.93-1-3-1H10.33 c-1.07,0-2.14,0.35-3,1L2,11c-1.25,0.94-2,2.43-2,4v38c0,1.65,1.35,3,3,3h48c1.65,0,3-1.35,3-3v-8.58l9.71-9.71 C64.1,34.32,64.1,33.68,63.71,33.29z M8.53,8.6C9.05,8.21,9.69,8,10.33,8H26v4.057H3.923L8.53,8.6z M52,53c0,0.55-0.45,1-1,1H3 c-0.55,0-1-0.45-1-1V15c0-0.325,0.071-0.639,0.173-0.943H39c0.552,0,1-0.448,1-1s-0.448-1-1-1H28V8h15.67c0.64,0,1.28,0.21,1.8,0.6 l5.33,4c0.75,0.56,1.2,1.46,1.2,2.4v7c-0.26,0-0.52,0.1-0.71,0.29l-4,4c-0.39,0.39-0.39,1.03,0,1.42l2.3,2.29H31 c-0.55,0-1,0.45-1,1v6c0,0.55,0.45,1,1,1h18.59l-2.3,2.29c-0.39,0.39-0.39,1.03,0,1.42l4,4C51.49,45.9,51.74,46,52,46V53z M54,41.59l-2,2L49.41,41L52,38.42l0.71-0.71c0.28-0.29,0.37-0.72,0.21-1.09C52.77,36.24,52.4,36,52,36H32v-4h20 c0.4,0,0.77-0.24,0.92-0.62c0.16-0.37,0.07-0.8-0.21-1.09L52,29.58L49.41,27L52,24.41l2,2L61.59,34L54,41.59z"/><path fill="#8d6c9f" d="M35,21c0-1.654-1.346-3-3-3H22c-1.654,0-3,1.346-3,3s1.346,3,3,3h10C33.654,24,35,22.654,35,21z M21,21c0-0.551,0.449-1,1-1h10c0.551,0,1,0.449,1,1s-0.449,1-1,1H22C21.449,22,21,21.551,21,21z"/></svg>