<svg xmlns="http://www.w3.org/2000/svg"  viewBox="0 0 64 64" width="512px" height="512px"><path fill="#bbdef9" d="M32 41A25 10 0 1 0 32 61A25 10 0 1 0 32 41Z"/><path fill="#def0ff" d="M42.377 41.903L19.266 59.605C22.996 60.49 27.348 61 32 61c2.025 0 3.991-.099 5.876-.28l18.068-12.598C53.865 45.352 48.867 43.089 42.377 41.903zM17.039 59.012l22.849-17.501c-1.724-.229-3.529-.387-5.398-.461L13.012 57.501C14.213 58.061 15.56 58.57 17.039 59.012zM11.04 56.448l20.389-15.442c-1.222.011-2.421.056-3.594.135L8.97 54.897C9.546 55.441 10.243 55.958 11.04 56.448z"/><path fill="#ed7899" d="M31.952,3c-8.208,0-14.885,6.677-14.885,14.885c0,5.337,3.214,10.152,6.616,15.25 c3.326,4.983,6.765,10.135,7.526,16.212C31.256,49.72,31.573,50,31.949,50c0.376,0,0.694-0.28,0.74-0.653 c0.764-6.076,4.203-11.228,7.528-16.209c3.404-5.099,6.619-9.915,6.619-15.253C46.836,9.677,40.159,3,31.952,3z"/><path fill="#f9dd8f" d="M32 11A7 7 0 1 0 32 25A7 7 0 1 0 32 11Z"/><path fill="#8d6c9f" d="M35.937 55.869C34.653 55.956 33.328 56 32 56c-4.198 0-8.308-.452-11.572-1.271-.535-.136-1.079.19-1.213.726-.135.536.19 1.079.726 1.213C23.409 57.54 27.58 58 32 58c1.373 0 2.743-.045 4.072-.136.551-.037.968-.514.93-1.065C36.965 56.249 36.5 55.83 35.937 55.869zM43.575 54.729c-.972.244-2.021.457-3.121.633-.545.087-.917.601-.829 1.146.079.492.504.841.986.841.053 0 .106-.004.16-.013 1.156-.186 2.263-.411 3.29-.668.536-.134.861-.677.727-1.213C44.653 54.92 44.109 54.595 43.575 54.729z"/><path fill="#8d6c9f" d="M37.356,40.238c1.123-1.895,2.35-3.738,3.565-5.559C44.562,29.225,48,24.075,48,18.331 c0-8.849-7.199-16.048-16.048-16.048c-8.849,0-16.048,7.199-16.048,16.048c0,5.743,3.437,10.893,7.076,16.345 c1.218,1.824,2.447,3.671,3.571,5.57C14.679,41.28,6,45.626,6,51c0,6.168,11.42,11,26,11s26-4.832,26-11 C58,45.612,49.276,41.257,37.356,40.238z M17.904,18.331c0-7.746,6.302-14.048,14.048-14.048S46,10.584,46,18.331 c0,5.138-3.275,10.043-6.742,15.237c-2.833,4.243-5.74,8.598-7.308,13.548c-1.567-4.951-4.474-9.307-7.307-13.551 C21.178,28.373,17.904,23.467,17.904,18.331z M32,60c-14.356,0-24-4.654-24-9c0-3.887,7.737-8.001,19.637-8.83 c1.622,3.028,2.886,6.21,3.32,9.673c0.062,0.5,0.488,0.875,0.992,0.875c0.504,0,0.929-0.375,0.992-0.875 c0.436-3.465,1.702-6.65,3.327-9.68C48.223,42.976,56,47.103,56,51C56,55.346,46.356,60,32,60z"/><path fill="#8d6c9f" d="M35.458,25.178c3.318-1.604,5.107-5.239,4.351-8.842c-0.113-0.54-0.641-0.885-1.184-0.773 c-0.541,0.113-0.887,0.644-0.773,1.184c0.567,2.701-0.775,5.427-3.264,6.63c-2.977,1.438-6.574,0.187-8.013-2.792 s-0.187-6.574,2.792-8.013c0.508-0.246,1.044-0.418,1.593-0.513c0.544-0.094,0.909-0.611,0.815-1.155 c-0.093-0.544-0.608-0.913-1.155-0.815c-0.732,0.126-1.447,0.356-2.123,0.683c-3.972,1.918-5.642,6.711-3.723,10.684 c1.379,2.854,4.241,4.519,7.216,4.519C33.157,25.974,34.34,25.718,35.458,25.178z"/><path fill="#8d6c9f" d="M34.226 12.412c.729.294 1.383.721 1.943 1.267.194.189.446.284.698.284.26 0 .52-.101.716-.302.386-.396.378-1.028-.018-1.414-.747-.729-1.619-1.297-2.59-1.689-.515-.208-1.095.041-1.302.553C33.466 11.622 33.714 12.205 34.226 12.412zM32 16A2 2 0 1 0 32 20 2 2 0 1 0 32 16z"/><path fill="#fff" d="M42.292 44.998L43.53 47.262 45.794 48.5 43.53 49.738 42.292 52.002 41.053 49.738 38.79 48.5 41.053 47.262zM18.375 45.165L19.23 46.728 20.794 47.583 19.23 48.438 18.375 50.002 17.52 48.438 15.956 47.583 17.52 46.728zM27.604 51.706L28.187 52.772 29.252 53.354 28.187 53.937 27.604 55.002 27.022 53.937 25.956 53.354 27.022 52.772z"/></svg>