<svg xmlns="http://www.w3.org/2000/svg"  viewBox="0 0 64 64" width="512px" height="512px"><rect width="50" height="50" x="7" y="7" fill="#c5e4fa" rx="2" ry="2"/><path fill="#e3f2ff" d="M57 10.52L10.55 56.97 37.27 56.97 57 37.24 57 10.52zM44.31 7.08L7 44.39V55s0 0 0 .07l48-48zM7 38.25L38.17 7.08 36.38 7.08 7 36.47 7 38.25z"/><path fill="#fff7f0" d="M13 13H23V23H13zM13 41H23V51H13zM41 13H51V23H41z"/><path fill="#8d6c9f" d="M55,6H9A3,3,0,0,0,6,9V55a3,3,0,0,0,3,3H55a3,3,0,0,0,3-3V9A3,3,0,0,0,55,6Zm1,49a1,1,0,0,1-1,1H9a1,1,0,0,1-1-1V9A1,1,0,0,1,9,8H55a1,1,0,0,1,1,1Z"/><path fill="#8d6c9f" d="M32 48a1 1 0 0 0-1 1v2a1 1 0 0 0 2 0V49A1 1 0 0 0 32 48zM27 48a1 1 0 0 0-1 1v2a1 1 0 0 0 2 0V49A1 1 0 0 0 27 48zM37 48a1 1 0 0 0-1 1v2a1 1 0 0 0 2 0V49A1 1 0 0 0 37 48zM42 48a1 1 0 0 0-1 1v2a1 1 0 0 0 2 0V49A1 1 0 0 0 42 48zM51 40a1 1 0 0 0-1 1v2a1 1 0 0 0 2 0V41A1 1 0 0 0 51 40zM27 24a1 1 0 0 0 1-1V21a1 1 0 0 0-2 0v2A1 1 0 0 0 27 24zM13 28h2a1 1 0 0 0 0-2H13a1 1 0 0 0 0 2zM13 33h2a1 1 0 0 0 0-2H13a1 1 0 0 0 0 2zM35 14h2a1 1 0 0 0 0-2H35a1 1 0 0 0 0 2zM13 38h2a1 1 0 0 0 0-2H13a1 1 0 0 0 0 2zM23 36H19a1 1 0 0 0 0 2h4a1 1 0 0 0 0-2z"/><path fill="#8d6c9f" d="M51,26H45a1,1,0,0,0,0,2h5v4H47a1,1,0,0,0-1,1v3H41a1,1,0,0,0-1,1v3H38V34h3a1,1,0,0,0,1-1V29a1,1,0,0,0-1-1H37a1,1,0,0,0-1,1v3H28V28h5a1,1,0,0,0,1-1V24h3a1,1,0,0,0,1-1V17a1,1,0,0,0-1-1H32V13a1,1,0,0,0-1-1H27a1,1,0,0,0-1,1v4a1,1,0,0,0,1,1h3v3a1,1,0,0,0,2,0V18h4v4H33a1,1,0,0,0-1,1v3H27a1,1,0,0,0-1,1v5H24V29a1,1,0,0,0-1-1H19a1,1,0,0,0-1,1v4a1,1,0,0,0,1,1h7v3a1,1,0,0,0,1,1h5v2H29a1,1,0,0,0-1,1v4a1,1,0,0,0,1,1h4a1,1,0,0,0,1-1V37a1,1,0,0,0-1-1H28V34h8V45a1,1,0,0,0,1,1h4a1,1,0,0,0,1-1V42h4v9a1,1,0,0,0,1,1h4a1,1,0,0,0,1-1V47a1,1,0,0,0-1-1H48V41a1,1,0,0,0-1-1H42V38h9a1,1,0,0,0,1-1V27A1,1,0,0,0,51,26ZM28,14h2v2H28ZM20,30h2v2H20ZM32,44H30V42h2v2Zm18,6H48V48h2ZM38,30h2v2H38Zm2,14H38V42h2Zm10-8H48V34h2v2Z"/><path fill="#8d6c9f" d="M14 24h8a2 2 0 0 0 2-2V14a2 2 0 0 0-2-2H14a2 2 0 0 0-2 2v8A2 2 0 0 0 14 24zm0-10h8v8H14zM22 40H14a2 2 0 0 0-2 2v8a2 2 0 0 0 2 2h8a2 2 0 0 0 2-2V42A2 2 0 0 0 22 40zM14 50V42h8v8z"/><rect width="4" height="4" x="16" y="44" fill="#8d6c9f" rx="1" ry="1"/><rect width="4" height="4" x="16" y="16" fill="#8d6c9f" rx="1" ry="1"/><rect width="4" height="4" x="44" y="16" fill="#8d6c9f" rx="1" ry="1"/><path fill="#8d6c9f" d="M50,12H42a2,2,0,0,0-2,2v8a2,2,0,0,0,2,2h8a2,2,0,0,0,2-2V14A2,2,0,0,0,50,12ZM42,22V14h8v8Z"/></svg>