<svg xmlns="http://www.w3.org/2000/svg"  viewBox="0 0 64 64" width="512px" height="512px"><rect width="62" height="11" x="1" y="11" fill="#f283a5"/><rect width="62" height="20" x="1" y="22" fill="#f9dd8f"/><rect width="62" height="11" x="1" y="42" fill="#f283a5"/><path fill="#8d6c9f" d="M61,10H3c-1.657,0-3,1.343-3,3v38c0,1.657,1.343,3,3,3h58c1.657,0,3-1.343,3-3V13 C64,11.343,62.657,10,61,10z M61,12c0.552,0,1,0.448,1,1v2v36c0,0.552-0.448,1-1,1H3c-0.552,0-1-0.448-1-1V13c0-0.552,0.448-1,1-1 H61z"/><path fill="#8d6c9f" d="M7,39.994c-0.552,0-1,0.448-1,1v2c0,0.552,0.448,1,1,1s1-0.448,1-1v-2 C8,40.442,7.552,39.994,7,39.994z M12,39.994c-0.552,0-1,0.448-1,1v2c0,0.552,0.448,1,1,1s1-0.448,1-1v-2 C13,40.442,12.552,39.994,12,39.994z M22,39.994c-0.552,0-1,0.448-1,1v2c0,0.552,0.448,1,1,1s1-0.448,1-1v-2 C23,40.442,22.552,39.994,22,39.994z M17,39.994c-0.552,0-1,0.448-1,1v2c0,0.552,0.448,1,1,1s1-0.448,1-1v-2 C18,40.442,17.552,39.994,17,39.994z M27,39.994c-0.552,0-1,0.448-1,1v2c0,0.552,0.448,1,1,1s1-0.448,1-1v-2 C28,40.442,27.552,39.994,27,39.994z M47,39.994c-0.552,0-1,0.448-1,1v2c0,0.552,0.448,1,1,1s1-0.448,1-1v-2 C48,40.442,47.552,39.994,47,39.994z M52,39.994c-0.552,0-1,0.448-1,1v2c0,0.552,0.448,1,1,1s1-0.448,1-1v-2 C53,40.442,52.552,39.994,52,39.994z M57,39.994c-0.552,0-1,0.448-1,1v2c0,0.552,0.448,1,1,1s1-0.448,1-1v-2 C58,40.442,57.552,39.994,57,39.994z M62,39.994c-0.552,0-1,0.448-1,1v2c0,0.552,0.448,1,1,1s1-0.448,1-1v-2 C63,40.442,62.552,39.994,62,39.994z M2,39.994c-0.552,0-1,0.448-1,1v2c0,0.552,0.448,1,1,1s1-0.448,1-1v-2 C3,40.442,2.552,39.994,2,39.994z M32,39.994c-0.552,0-1,0.448-1,1v2c0,0.552,0.448,1,1,1s1-0.448,1-1v-2 C33,40.442,32.552,39.994,32,39.994z M42,39.994c-0.552,0-1,0.448-1,1v2c0,0.552,0.448,1,1,1s1-0.448,1-1v-2 C43,40.442,42.552,39.994,42,39.994z M37,39.994c-0.552,0-1,0.448-1,1v2c0,0.552,0.448,1,1,1s1-0.448,1-1v-2 C38,40.442,37.552,39.994,37,39.994z"/><path fill="#8d6c9f" d="M6,38c-0.552,0-1-0.447-1-1v-8c0-0.553,0.448-1,1-1s1,0.447,1,1v8C7,37.553,6.552,38,6,38z"/><path fill="#8d6c9f" d="M18,38c-0.552,0-1-0.447-1-1v-8c0-0.553,0.448-1,1-1s1,0.447,1,1v8C19,37.553,18.552,38,18,38z"/><path fill="#8d6c9f" d="M12,38L12,38c-1.657,0-3-1.343-3-3v-6h6v6C15,36.657,13.657,38,12,38z"/><polygon fill="#8d6c9f" points="16,27 14,29 10,29 8,27 8,26 16,26"/><circle cx="12" cy="25" r="1" fill="#8d6c9f"/><path fill="#8d6c9f" d="M11,36c-0.219,0-0.44-0.071-0.624-0.219l-5-4c-0.432-0.346-0.501-0.975-0.156-1.406 c0.345-0.431,0.975-0.501,1.405-0.156l5,4c0.432,0.346,0.501,0.975,0.156,1.406C11.583,35.871,11.292,36,11,36z"/><path fill="#8d6c9f" d="M13,36c-0.293,0-0.584-0.128-0.781-0.375c-0.345-0.432-0.275-1.061,0.156-1.406l5-4 c0.431-0.345,1.06-0.274,1.405,0.156c0.345,0.432,0.275,1.061-0.156,1.406l-5,4C13.44,35.929,13.22,36,13,36z"/><g><path fill="#8d6c9f" d="M62,23h-4c-0.553,0-1-0.447-1-1s0.447-1,1-1h4c0.553,0,1,0.447,1,1S62.553,23,62,23z"/></g><g><path fill="#8d6c9f" d="M54,23h-4c-0.553,0-1-0.447-1-1s0.447-1,1-1h4c0.553,0,1,0.447,1,1S54.553,23,54,23z"/></g><g><path fill="#8d6c9f" d="M46,23H2c-0.552,0-1-0.447-1-1s0.448-1,1-1h44c0.553,0,1,0.447,1,1S46.553,23,46,23z"/></g></svg>