<svg xmlns="http://www.w3.org/2000/svg"  viewBox="0 0 64 64" width="512px" height="512px"><rect width="56.11" height="40.36" x="6.89" y="12.87" fill="#faefde" rx="2" ry="2"/><path fill="#fff7f0" d="M63,16,35,36,6,16V15a2,2,0,0,1,2-2H61a2,2,0,0,1,2,2Z"/><path fill="#efd8be" d="M10.89,48H59a4,4,0,0,1,4,4v.23a1,1,0,0,1-1,1H7.89a1,1,0,0,1-1-1V52A4,4,0,0,1,10.89,48Z"/><rect width="56.11" height="4" x="6.89" y="13" fill="#fff" rx="2" ry="2" transform="rotate(180 34.945 15)"/><path fill="#ed7899" d="M13 7A12 12 0 1 0 13 31A12 12 0 1 0 13 7Z"/><path fill="#8d6c9f" d="M15 46a1 1 0 0 0-1 1v2a1 1 0 0 0 2 0V47A1 1 0 0 0 15 46zM10 46a1 1 0 0 0-1 1v2a1 1 0 0 0 2 0V47A1 1 0 0 0 10 46zM20 46a1 1 0 0 0-1 1v2a1 1 0 0 0 2 0V47A1 1 0 0 0 20 46zM25 46a1 1 0 0 0-1 1v2a1 1 0 0 0 2 0V47A1 1 0 0 0 25 46zM30 46a1 1 0 0 0-1 1v2a1 1 0 0 0 2 0V47A1 1 0 0 0 30 46zM35 46a1 1 0 0 0-1 1v2a1 1 0 0 0 2 0V47A1 1 0 0 0 35 46zM40 46a1 1 0 0 0-1 1v2a1 1 0 0 0 2 0V47A1 1 0 0 0 40 46zM45 46a1 1 0 0 0-1 1v2a1 1 0 0 0 2 0V47A1 1 0 0 0 45 46zM50 46a1 1 0 0 0-1 1v2a1 1 0 0 0 2 0V47A1 1 0 0 0 50 46zM55 46a1 1 0 0 0-1 1v2a1 1 0 0 0 2 0V47A1 1 0 0 0 55 46zM60 46a1 1 0 0 0-1 1v2a1 1 0 0 0 2 0V47A1 1 0 0 0 60 46z"/><path fill="#8d6c9f" d="M61,12H23.94A13,13,0,1,0,6,29.94V51a3,3,0,0,0,3,3H61a3,3,0,0,0,3-3V15A3,3,0,0,0,61,12Zm0,2a1,1,0,0,1,1,1v1.21L36.17,34.92a2,2,0,0,1-2.35,0L23.11,27.16A13,13,0,0,0,25,14ZM2,19A11,11,0,1,1,13,30,11,11,0,0,1,2,19ZM61,52H9a1,1,0,0,1-1-1V45.56L25.57,34.85a1,1,0,0,0-1-1.71L8,43.22V31a12.94,12.94,0,0,0,13.72-2.38l10.94,7.92a4,4,0,0,0,4.69,0L62,18.68V43.22L45.47,33.15a1,1,0,1,0-1,1.71L62,45.56V51A1,1,0,0,1,61,52Z"/><path fill="#f9efde" d="M13.04 23A2 2 0 1 0 13.04 27 2 2 0 1 0 13.04 23zM13 22a1 1 0 0 0 1-.89l.93-8a1.93 1.93 0 0 0-.51-1.46 2 2 0 0 0-2.83 0 2 2 0 0 0-.5 1.5l.92 8A1 1 0 0 0 13 22z"/></svg>