<svg xmlns="http://www.w3.org/2000/svg"  viewBox="0 0 64 64" width="512px" height="512px"><path fill="#becde8" d="M37 53L31 59 32 62 36 62 41 57z"/><path fill="#cda1a7" d="M58,19H6c-1.657,0-3,1.343-3,3v27c0,1.657,1.343,3,3,3h52c1.657,0,3-1.343,3-3V22 C61,20.343,59.657,19,58,19z"/><path fill="#c4939c" d="M60,52H4c-0.552,0-1-0.448-1-1v-1c0-2.209,1.791-4,4-4h50c2.209,0,4,1.791,4,4v1 C61,51.552,60.552,52,60,52z"/><path fill="#cda1a7" d="M61,8H3c-1.105,0-2,0.895-2,2v9.803c0,1.87,1.295,3.49,3.119,3.902L32,30l27.881-6.296 C61.705,23.292,63,21.672,63,19.803V10C63,8.895,62.105,8,61,8z"/><path fill="#dbb2ba" d="M3,8h58c1.105,0,2,0.895,2,2l0,0c0,1.657-1.343,3-3,3H4c-1.657,0-3-1.343-3-3l0,0 C1,8.895,1.895,8,3,8z"/><path fill="#f9e3ae" d="M34,33h-4c-0.552,0-1-0.448-1-1v-6c0-0.552,0.448-1,1-1h4c0.552,0,1,0.448,1,1v6 C35,32.552,34.552,33,34,33z"/><path fill="#ffeb97" d="M49 31A14 14 0 1 0 49 59A14 14 0 1 0 49 31Z"/><path fill="#abdef9" d="M49 35A10 10 0 1 0 49 55A10 10 0 1 0 49 35Z"/><path fill="#c6edff" d="M49 39A6 6 0 1 0 49 51A6 6 0 1 0 49 39Z"/><path fill="#f2f2f2" d="M46 39A3 3 0 1 0 46 45 3 3 0 1 0 46 39zM52.5 47A1.5 1.5 0 1 0 52.5 50 1.5 1.5 0 1 0 52.5 47z"/><path fill="#8d6c9f" d="M64,19.8V10c0-1.65-1.35-3-3-3H43.535l-3.109-4.664C39.868,1.499,38.935,1,37.93,1H26.07 c-1.005,0-1.938,0.499-2.496,1.336L20.465,7H3c-1.65,0-3,1.35-3,3v9.8c0,1.63,0.76,3.09,2,4V50c0,1.65,1.35,3,3,3h30.419 l-4.299,4.29c-1.49,1.5-1.49,3.92,0,5.42c0.75,0.74,1.73,1.12,2.71,1.12c0.98,0,1.96-0.38,2.71-1.12l4.58-4.59 c0.08-0.08,0.15-0.15,0.21-0.24C43.57,59.23,46.2,60,49,60c8.27,0,15-6.73,15-15c0-2.72-0.73-5.27-2-7.47V23.8 C63.24,22.89,64,21.43,64,19.8z M25.238,3.445C25.424,3.166,25.735,3,26.07,3H37.93c0.335,0,0.646,0.166,0.832,0.445L41.131,7 H22.869L25.238,3.445z M35.12,61.29c-0.71,0.72-1.87,0.72-2.58,0c-0.72-0.71-0.72-1.87,0-2.58l4.57-4.58 c0.75,0.97,1.61,1.85,2.57,2.61L35.12,61.29z M59.25,52.98C56.88,56.03,53.17,58,49,58c-2.58,0-4.98-0.75-7-2.05 c-1.24-0.8-2.34-1.79-3.24-2.95c-0.29-0.36-0.55-0.74-0.79-1.14c-0.18-0.28-0.35-0.57-0.5-0.86c-0.64-1.23-1.1-2.58-1.31-4 C36.05,46.35,36,45.68,36,45c0-7.17,5.83-13,13-13c4.63,0,8.7,2.43,11,6.08c1.27,2.01,2,4.38,2,6.92C62,48,60.97,50.78,59.25,52.98 z M49,30c-8.27,0-15,6.73-15,15H7c-0.55,0-1,0.45-1,1s0.45,1,1,1h27.14c0.18,1.41,0.57,2.75,1.12,4H5c-0.55,0-1-0.45-1-1V24.7 l24,5.43V32c0,1.1,0.9,2,2,2h4c1.1,0,2-0.9,2-2v-1.87l24-5.43v10.12C57.26,31.86,53.34,30,49,30z M30,26h4v6h-4V26z M60,22.63 c-0.11,0.04-0.22,0.07-0.34,0.1L36,28.07V26c0-1.1-0.9-2-2-2h-4c-1.1,0-2,0.9-2,2v2.07L4.34,22.73C4.22,22.7,4.11,22.67,4,22.63 c-1.2-0.42-2-1.54-2-2.83V15c0.552,0,1-0.447,1-1v-2c0-0.553-0.448-1-1-1v-1c0-0.55,0.45-1,1-1h16.131h25.737H61c0.55,0,1,0.45,1,1 v1c-0.552,0-1,0.447-1,1v2c0,0.553,0.448,1,1,1v4.8C62,21.09,61.2,22.21,60,22.63z"/><path fill="#8d6c9f" d="M7 11c-.552 0-1 .447-1 1v2c0 .553.448 1 1 1s1-.447 1-1v-2C8 11.447 7.552 11 7 11zM12 11c-.552 0-1 .447-1 1v2c0 .553.448 1 1 1s1-.447 1-1v-2C13 11.447 12.552 11 12 11zM17 11c-.552 0-1 .447-1 1v2c0 .553.448 1 1 1s1-.447 1-1v-2C18 11.447 17.552 11 17 11zM22 11c-.552 0-1 .447-1 1v2c0 .553.448 1 1 1s1-.447 1-1v-2C23 11.447 22.552 11 22 11zM27 11c-.552 0-1 .447-1 1v2c0 .553.448 1 1 1s1-.447 1-1v-2C28 11.447 27.552 11 27 11zM32 11c-.552 0-1 .447-1 1v2c0 .553.448 1 1 1s1-.447 1-1v-2C33 11.447 32.552 11 32 11zM37 11c-.552 0-1 .447-1 1v2c0 .553.448 1 1 1s1-.447 1-1v-2C38 11.447 37.552 11 37 11zM42 11c-.552 0-1 .447-1 1v2c0 .553.448 1 1 1s1-.447 1-1v-2C43 11.447 42.552 11 42 11zM47 11c-.552 0-1 .447-1 1v2c0 .553.448 1 1 1s1-.447 1-1v-2C48 11.447 47.552 11 47 11zM52 11c-.552 0-1 .447-1 1v2c0 .553.448 1 1 1s1-.447 1-1v-2C53 11.447 52.552 11 52 11zM57 11c-.552 0-1 .447-1 1v2c0 .553.448 1 1 1s1-.447 1-1v-2C58 11.447 57.552 11 57 11zM48.914 34C42.896 34 38 38.896 38 44.914s4.896 10.914 10.914 10.914c6.018 0 10.914-4.896 10.914-10.914S54.932 34 48.914 34zM48.914 53.828c-4.915 0-8.914-3.999-8.914-8.914S43.999 36 48.914 36s8.914 3.999 8.914 8.914S53.829 53.828 48.914 53.828z"/><path fill="#8d6c9f" d="M48.914,37.826c-0.552,0-1,0.447-1,1s0.448,1,1,1c2.042,0,3.88,1.214,4.682,3.094 c0.162,0.38,0.532,0.607,0.92,0.607c0.131,0,0.264-0.025,0.392-0.08c0.508-0.217,0.744-0.805,0.527-1.312 C54.319,39.518,51.759,37.826,48.914,37.826z"/></svg>