<svg xmlns="http://www.w3.org/2000/svg"  viewBox="0 0 64 64" width="512px" height="512px"><path fill="#f283a5" d="M40,23c0-3.866-3.134-7-7-7s-7,3.134-7,7s7,14,7,14S40,26.866,40,23z"/><path fill="#8d6c9f" d="M33,38c-0.329,0-0.636-0.161-0.823-0.432C31.442,36.505,25,27.061,25,23c0-4.411,3.589-8,8-8 s8,3.589,8,8c0,4.061-6.442,13.505-7.177,14.568C33.636,37.839,33.329,38,33,38z M33,17c-3.309,0-6,2.691-6,6 c0,2.557,3.788,8.847,6,12.208c2.212-3.362,6-9.653,6-12.208C39,19.691,36.309,17,33,17z"/><path fill="#fff8ee" d="M33 20A3 3 0 1 0 33 26A3 3 0 1 0 33 20Z"/><path fill="#8d6c9f" d="M33,27c-2.206,0-4-1.794-4-4s1.794-4,4-4s4,1.794,4,4S35.206,27,33,27z M33,21c-1.103,0-2,0.897-2,2 s0.897,2,2,2s2-0.897,2-2S34.103,21,33,21z"/><path fill="#fff8ee" d="M8 5A3 3 0 1 0 8 11A3 3 0 1 0 8 5Z"/><path fill="#8d6c9f" d="M8,12c-2.206,0-4-1.794-4-4s1.794-4,4-4s4,1.794,4,4S10.206,12,8,12z M8,6C6.897,6,6,6.897,6,8 s0.897,2,2,2s2-0.897,2-2S9.103,6,8,6z"/><path fill="#fff8ee" d="M54 24A3 3 0 1 0 54 30A3 3 0 1 0 54 24Z"/><path fill="#8d6c9f" d="M54,31c-2.206,0-4-1.794-4-4s1.794-4,4-4s4,1.794,4,4S56.206,31,54,31z M54,25c-1.103,0-2,0.897-2,2 s0.897,2,2,2s2-0.897,2-2S55.103,25,54,25z"/><path fill="#fff8ee" d="M56 53A3 3 0 1 0 56 59A3 3 0 1 0 56 53Z"/><path fill="#8d6c9f" d="M56 60c-2.206 0-4-1.794-4-4s1.794-4 4-4 4 1.794 4 4S58.206 60 56 60zM56 54c-1.103 0-2 .897-2 2s.897 2 2 2 2-.897 2-2S57.103 54 56 54zM48 58c-.552 0-1-.448-1-1v-2c0-.552.448-1 1-1s1 .448 1 1v2C49 57.552 48.552 58 48 58zM43 58c-.552 0-1-.448-1-1v-2c0-.552.448-1 1-1s1 .448 1 1v2C44 57.552 43.552 58 43 58zM38 58c-.552 0-1-.448-1-1v-2c0-.552.448-1 1-1s1 .448 1 1v2C39 57.552 38.552 58 38 58zM33 58c-.552 0-1-.448-1-1v-2c0-.552.448-1 1-1s1 .448 1 1v2C34 57.552 33.552 58 33 58zM28 58c-.552 0-1-.448-1-1v-2c0-.552.448-1 1-1s1 .448 1 1v2C29 57.552 28.552 58 28 58zM23 58c-.552 0-1-.448-1-1v-2c0-.552.448-1 1-1s1 .448 1 1v2C24 57.552 23.552 58 23 58zM18 58c-.552 0-1-.448-1-1v-2c0-.552.448-1 1-1s1 .448 1 1v2C19 57.552 18.552 58 18 58zM45 10c-.552 0-1-.448-1-1V7c0-.552.448-1 1-1s1 .448 1 1v2C46 9.552 45.552 10 45 10zM40 10c-.552 0-1-.448-1-1V7c0-.552.448-1 1-1s1 .448 1 1v2C41 9.552 40.552 10 40 10zM35 10c-.552 0-1-.448-1-1V7c0-.552.448-1 1-1s1 .448 1 1v2C36 9.552 35.552 10 35 10zM30 10c-.552 0-1-.448-1-1V7c0-.552.448-1 1-1s1 .448 1 1v2C31 9.552 30.552 10 30 10zM25 10c-.552 0-1-.448-1-1V7c0-.552.448-1 1-1s1 .448 1 1v2C26 9.552 25.552 10 25 10zM20 10c-.552 0-1-.448-1-1V7c0-.552.448-1 1-1s1 .448 1 1v2C21 9.552 20.552 10 20 10zM15 10c-.552 0-1-.448-1-1V7c0-.552.448-1 1-1s1 .448 1 1v2C16 9.552 15.552 10 15 10zM13 58c-.552 0-1-.448-1-1v-2c0-.552.448-1 1-1s1 .448 1 1v2C14 57.552 13.552 58 13 58zM43 46c-.552 0-1-.448-1-1v-2c0-.552.448-1 1-1s1 .448 1 1v2C44 45.552 43.552 46 43 46zM38 46c-.552 0-1-.448-1-1v-2c0-.552.448-1 1-1s1 .448 1 1v2C39 45.552 38.552 46 38 46zM33 46c-.552 0-1-.448-1-1v-2c0-.552.448-1 1-1s1 .448 1 1v2C34 45.552 33.552 46 33 46zM28 46c-.552 0-1-.448-1-1v-2c0-.552.448-1 1-1s1 .448 1 1v2C29 45.552 28.552 46 28 46zM23 46c-.552 0-1-.448-1-1v-2c0-.552.448-1 1-1s1 .448 1 1v2C24 45.552 23.552 46 23 46z"/><g><path fill="#8d6c9f" d="M18,46c-0.552,0-1-0.448-1-1v-2c0-0.552,0.448-1,1-1s1,0.448,1,1v2C19,45.552,18.552,46,18,46z"/></g><g><path fill="#8d6c9f" d="M13,46c-0.552,0-1-0.448-1-1v-2c0-0.552,0.448-1,1-1s1,0.448,1,1v2C14,45.552,13.552,46,13,46z"/></g><g><path fill="#8d6c9f" d="M8.752 47.134c-.286 0-.57-.122-.768-.358l-1.283-1.534c-.354-.424-.298-1.055.125-1.409.424-.355 1.054-.297 1.409.125l1.283 1.534c.354.424.298 1.055-.125 1.409C9.206 47.058 8.978 47.134 8.752 47.134zM7 51H5c-.552 0-1-.448-1-1s.448-1 1-1h2c.552 0 1 .448 1 1S7.552 51 7 51zM7.468 56.4c-.226 0-.454-.076-.641-.233-.423-.354-.48-.985-.125-1.409l1.283-1.534c.354-.423.984-.481 1.409-.125.423.354.48.985.125 1.409l-1.283 1.534C8.038 56.278 7.754 56.4 7.468 56.4z"/></g><g><path fill="#8d6c9f" d="M48.541 45.938c-.552 0-1-.448-1-1v-2c0-.552.448-1 1-1s1 .448 1 1v2C49.541 45.49 49.093 45.938 48.541 45.938zM53.442 44.501c-.259 0-.517-.1-.713-.299l-1.402-1.426c-.387-.394-.382-1.027.012-1.414.394-.388 1.026-.383 1.414.012l1.402 1.426c.387.394.382 1.027-.012 1.414C53.949 44.406 53.695 44.501 53.442 44.501zM54.938 39.607h-2c-.552 0-1-.448-1-1s.448-1 1-1h2c.552 0 1 .448 1 1S55.49 39.607 54.938 39.607zM54.938 35.104h-2c-.552 0-1-.448-1-1s.448-1 1-1h2c.552 0 1 .448 1 1S55.49 35.104 54.938 35.104z"/></g><g><path fill="#8d6c9f" d="M49.875 10c-.552 0-1-.448-1-1V7c0-.552.448-1 1-1s1 .448 1 1v2C50.875 9.552 50.427 10 49.875 10zM52.774 11.858c-.393 0-.766-.233-.925-.619-.211-.511.032-1.095.543-1.306l1.849-.763c.51-.211 1.095.033 1.306.543.211.511-.032 1.095-.543 1.306l-1.849.763C53.03 11.834 52.901 11.858 52.774 11.858zM55 16.281h-2c-.552 0-1-.448-1-1s.448-1 1-1h2c.552 0 1 .448 1 1S55.552 16.281 55 16.281zM55 21.125h-2c-.552 0-1-.448-1-1s.448-1 1-1h2c.552 0 1 .448 1 1S55.552 21.125 55 21.125z"/></g></svg>