<svg xmlns="http://www.w3.org/2000/svg"  viewBox="0 0 64 64" width="512px" height="512px"><path fill="#72caaf" d="M51,57H13c-3.314,0-6-2.686-6-6V13c0-3.314,2.686-6,6-6h38c3.314,0,6,2.686,6,6v38 C57,54.314,54.314,57,51,57z"/><path fill="#97e0bb" d="M14,7h36c2.209,0,7,0.791,7,3l0,0c0,1.657-1.343,3-3,3H10c-1.657,0-3-1.343-3-3l0,0 C7,7.791,11.791,7,14,7z"/><path fill="#8d6c9f" d="M50,52H14c-0.552,0-1-0.448-1-1s0.448-1,1-1h36c0.552,0,1,0.448,1,1S50.552,52,50,52z"/><rect width="9" height="6" x="14" y="41" fill="#faefde"/><path fill="#8d6c9f" d="M23,48h-9c-0.552,0-1-0.448-1-1v-6c0-0.552,0.448-1,1-1h9c0.552,0,1,0.448,1,1v6 C24,47.552,23.552,48,23,48z M15,46h7v-4h-7V46z"/><rect width="9" height="13" x="23" y="34" fill="#faefde"/><path fill="#8d6c9f" d="M32,48h-9c-0.552,0-1-0.448-1-1V34c0-0.552,0.448-1,1-1h9c0.552,0,1,0.448,1,1v13 C33,47.552,32.552,48,32,48z M24,46h7V35h-7V46z"/><rect width="9" height="19" x="41" y="28" fill="#faefde"/><path fill="#8d6c9f" d="M50,48h-9c-0.552,0-1-0.448-1-1V28c0-0.552,0.448-1,1-1h9c0.552,0,1,0.448,1,1v19 C51,47.552,50.552,48,50,48z M42,46h7V29h-7V46z"/><rect width="9" height="27" x="32" y="20" fill="#faefde"/><path fill="#8d6c9f" d="M41,48h-9c-0.552,0-1-0.448-1-1V20c0-0.552,0.448-1,1-1h9c0.552,0,1,0.448,1,1v27 C42,47.552,41.552,48,41,48z M33,46h7V21h-7V46z"/><path fill="#8d6c9f" d="M52,15c-0.552,0-1-0.448-1-1v-2c0-0.552,0.448-1,1-1s1,0.448,1,1v2C53,14.552,52.552,15,52,15z"/><path fill="#8d6c9f" d="M47,15c-0.552,0-1-0.448-1-1v-2c0-0.552,0.448-1,1-1s1,0.448,1,1v2C48,14.552,47.552,15,47,15z"/><path fill="#8d6c9f" d="M42,15c-0.552,0-1-0.448-1-1v-2c0-0.552,0.448-1,1-1s1,0.448,1,1v2C43,14.552,42.552,15,42,15z"/><path fill="#8d6c9f" d="M37,15c-0.552,0-1-0.448-1-1v-2c0-0.552,0.448-1,1-1s1,0.448,1,1v2C38,14.552,37.552,15,37,15z"/><path fill="#8d6c9f" d="M32,15c-0.552,0-1-0.448-1-1v-2c0-0.552,0.448-1,1-1s1,0.448,1,1v2C33,14.552,32.552,15,32,15z"/><path fill="#8d6c9f" d="M27,15c-0.552,0-1-0.448-1-1v-2c0-0.552,0.448-1,1-1s1,0.448,1,1v2C28,14.552,27.552,15,27,15z"/><path fill="#8d6c9f" d="M22,15c-0.552,0-1-0.448-1-1v-2c0-0.552,0.448-1,1-1s1,0.448,1,1v2C23,14.552,22.552,15,22,15z"/><path fill="#8d6c9f" d="M17,15c-0.552,0-1-0.448-1-1v-2c0-0.552,0.448-1,1-1s1,0.448,1,1v2C18,14.552,17.552,15,17,15z"/><path fill="#8d6c9f" d="M12,15c-0.552,0-1-0.448-1-1v-2c0-0.552,0.448-1,1-1s1,0.448,1,1v2C13,14.552,12.552,15,12,15z"/><path fill="#8d6c9f" d="M51,58H13c-3.86,0-7-3.14-7-7V13c0-3.86,3.14-7,7-7h38c3.86,0,7,3.14,7,7v38 C58,54.86,54.86,58,51,58z M13,8c-2.757,0-5,2.243-5,5v38c0,2.757,2.243,5,5,5h38c2.757,0,5-2.243,5-5V13c0-2.757-2.243-5-5-5H13z"/></svg>