<svg xmlns="http://www.w3.org/2000/svg"  viewBox="0 0 64 64" width="512px" height="512px"><g id="_x32_1_Vehicle_Car_Truck_Automobile_Cargo"><path fill="#c2cde7" d="M61,53H3c-1.1,0-2-0.9-2-2v-6c0-1.1,0.9-2,2-2h58c1.1,0,2,0.9,2,2v6C63,52.1,62.1,53,61,53z"/><path fill="#d5e0f3" d="M60,48L60,48c0,0.6-0.4,1-1,1H5c-0.6,0-1-0.4-1-1l0,0c0-0.6,0.4-1,1-1h54C59.6,47,60,47.4,60,48z"/><path fill="#ed7899" d="M61 43L41 43 41 23 51 23 61 37.1z"/><path fill="#bbdef9" d="M54 35L45 35 45 27 51 27z"/><path fill="#85cbf8" d="M3 13H41V43H3z"/><path fill="#6fc6f0" d="M41,13H3v2c0,1.7,1.3,3,3,3h32c1.7,0,3-1.3,3-3V13z"/><path fill="#f9e3ae" d="M3 23H41V33H3zM41 13H3c-1.1 0-2-.9-2-2v0c0-1.1.9-2 2-2h38c1.1 0 2 .9 2 2v0C43 12.1 42.1 13 41 13z"/><path fill="#acb7d0" d="M15 47A6 6 0 1 0 15 59 6 6 0 1 0 15 47zM51 47A6 6 0 1 0 51 59 6 6 0 1 0 51 47z"/><path fill="#8d6c9f" d="M7 26c-.6 0-1 .4-1 1v2c0 .6.4 1 1 1s1-.4 1-1v-2C8 26.4 7.6 26 7 26zM12 26c-.6 0-1 .4-1 1v2c0 .6.4 1 1 1s1-.4 1-1v-2C13 26.4 12.6 26 12 26zM17 26c-.6 0-1 .4-1 1v2c0 .6.4 1 1 1s1-.4 1-1v-2C18 26.4 17.6 26 17 26zM22 26c-.6 0-1 .4-1 1v2c0 .6.4 1 1 1s1-.4 1-1v-2C23 26.4 22.6 26 22 26zM27 26c-.6 0-1 .4-1 1v2c0 .6.4 1 1 1s1-.4 1-1v-2C28 26.4 27.6 26 27 26zM32 26c-.6 0-1 .4-1 1v2c0 .6.4 1 1 1s1-.4 1-1v-2C33 26.4 32.6 26 32 26zM37 26c-.6 0-1 .4-1 1v2c0 .6.4 1 1 1s1-.4 1-1v-2C38 26.4 37.6 26 37 26zM45 40h2c.6 0 1-.4 1-1s-.4-1-1-1h-2c-.6 0-1 .4-1 1S44.4 40 45 40z"/><path fill="#8d6c9f" d="M62,42.2c0-0.1,0-0.1,0-0.2v-3.8c0-1-0.3-1.9-0.8-2.7L54,24.3c-0.9-1.4-2.5-2.3-4.2-2.3H48v-2 c0-0.6-0.4-1-1-1s-1,0.4-1,1v2h-4v-8.2c1.2-0.4,2-1.5,2-2.8c0-1.7-1.3-3-3-3H3c-1.7,0-3,1.3-3,3c0,1.3,0.8,2.4,2,2.8v28.4 c-1.2,0.4-2,1.5-2,2.8v6c0,1.7,1.3,3,3,3h5.1c0.5,3.4,3.4,6,6.9,6s6.4-2.6,6.9-6h22.2c0.5,3.4,3.4,6,6.9,6s6.4-2.6,6.9-6H61 c1.7,0,3-1.3,3-3v-6C64,43.7,63.1,42.6,62,42.2z M49.8,24c1,0,2,0.5,2.5,1.4l7.2,11.2c0.3,0.5,0.5,1,0.5,1.6V42H42V24H49.8z M4,24h25c0.6,0,1-0.4,1-1s-0.4-1-1-1H4v-8h36v18H4V24z M4,34h36v8H4V34z M3,10h38c0.6,0,1,0.4,1,1s-0.4,1-1,1H3 c-0.6,0-1-0.4-1-1S2.4,10,3,10z M15,58c-2.8,0-5-2.2-5-5s2.2-5,5-5s5,2.2,5,5S17.8,58,15,58z M51,58c-2.8,0-5-2.2-5-5s2.2-5,5-5 s5,2.2,5,5S53.8,58,51,58z M62,51c0,0.6-0.4,1-1,1h-3.1c-0.5-3.4-3.4-6-6.9-6s-6.4,2.6-6.9,6H21.9c-0.5-3.4-3.4-6-6.9-6 s-6.4,2.6-6.9,6H3c-0.6,0-1-0.4-1-1v-6c0-0.6,0.4-1,1-1h58c0.6,0,1,0.4,1,1V51z"/><path fill="#8d6c9f" d="M51 51A2 2 0 1 0 51 55 2 2 0 1 0 51 51zM15 51A2 2 0 1 0 15 55 2 2 0 1 0 15 51zM46 36h7.2c.7 0 1.4-.4 1.7-1s.3-1.4-.1-2l-3.8-6c-.4-.6-1-.9-1.7-.9H46c-1.1 0-2 .9-2 2v6C44 35.1 44.9 36 46 36zM46 28h3.4l3.8 6H46V28zM38 23c0-.6-.4-1-1-1h-4c-.6 0-1 .4-1 1s.4 1 1 1h4C37.6 24 38 23.6 38 23z"/></g></svg>