<svg xmlns="http://www.w3.org/2000/svg"  viewBox="0 0 64 64" width="512px" height="512px"><rect width="62" height="42" x="1" y="11" fill="#faefde" rx="2" ry="2"/><path fill="#ed7899" d="M1 16H63V20H1zM1 24H63V28H1zM1 32H63V36H1zM1 40H63V44H1zM1 48H63V52H1z"/><path fill="#85cbf8" d="M31,11V35H1V14a3,3,0,0,1,3-3Z"/><path fill="#faefde" d="M4.77 17.08l-.19.81a.5.5 0 0 0 .76.53L6 18l.65.43a.5.5 0 0 0 .76-.53l-.19-.81.61-.56a.5.5 0 0 0-.29-.87l-.79-.08-.29-.75a.52.52 0 0 0-.93 0l-.29.75-.79.08a.5.5 0 0 0-.29.87zM12.77 17.08l-.19.81a.5.5 0 0 0 .76.53L14 18l.65.43a.5.5 0 0 0 .76-.53l-.19-.81.61-.56a.5.5 0 0 0-.29-.87l-.79-.08-.29-.75a.52.52 0 0 0-.93 0l-.29.75-.79.08a.5.5 0 0 0-.29.87zM20.77 17.08l-.19.81a.5.5 0 0 0 .76.53L22 18l.65.43a.5.5 0 0 0 .76-.53l-.19-.81.61-.56a.5.5 0 0 0-.29-.87l-.79-.08-.29-.75a.52.52 0 0 0-.93 0l-.29.75-.79.08a.5.5 0 0 0-.29.87zM4.77 29.08l-.19.81a.5.5 0 0 0 .76.53L6 30l.65.43a.5.5 0 0 0 .76-.53l-.19-.81.61-.56a.5.5 0 0 0-.29-.87l-.79-.08-.29-.75a.52.52 0 0 0-.93 0l-.29.75-.79.08a.5.5 0 0 0-.29.87zM12.77 29.08l-.19.81a.5.5 0 0 0 .76.53L14 30l.65.43a.5.5 0 0 0 .76-.53l-.19-.81.61-.56a.5.5 0 0 0-.29-.87l-.79-.08-.29-.75a.52.52 0 0 0-.93 0l-.29.75-.79.08a.5.5 0 0 0-.29.87zM20.77 29.08l-.19.81a.5.5 0 0 0 .76.53L22 30l.65.43a.5.5 0 0 0 .76-.53l-.19-.81.61-.56a.5.5 0 0 0-.29-.87l-.79-.08-.29-.75a.52.52 0 0 0-.93 0l-.29.75-.79.08a.5.5 0 0 0-.29.87zM8.77 23.08l-.19.81a.5.5 0 0 0 .76.53L10 24l.65.43a.5.5 0 0 0 .76-.53l-.19-.81.61-.56a.5.5 0 0 0-.29-.87l-.79-.08-.29-.75a.52.52 0 0 0-.93 0l-.29.75-.79.08a.5.5 0 0 0-.29.87zM16.77 23.08l-.19.81a.5.5 0 0 0 .76.53L18 24l.65.43a.5.5 0 0 0 .76-.53l-.19-.81.61-.56a.5.5 0 0 0-.29-.87l-.79-.08-.29-.75a.52.52 0 0 0-.93 0l-.29.75-.79.08a.5.5 0 0 0-.29.87zM24.77 23.08l-.19.81a.5.5 0 0 0 .76.53L26 24l.65.43a.5.5 0 0 0 .76-.53l-.19-.81.61-.56a.5.5 0 0 0-.29-.87l-.79-.08-.29-.75a.52.52 0 0 0-.93 0l-.29.75-.79.08a.5.5 0 0 0-.29.87z"/><path fill="#8d6c9f" d="M7 46a1 1 0 0 0-1 1v2a1 1 0 0 0 2 0V47A1 1 0 0 0 7 46zM12 46a1 1 0 0 0-1 1v2a1 1 0 0 0 2 0V47A1 1 0 0 0 12 46zM22 46a1 1 0 0 0-1 1v2a1 1 0 0 0 2 0V47A1 1 0 0 0 22 46zM17 46a1 1 0 0 0-1 1v2a1 1 0 0 0 2 0V47A1 1 0 0 0 17 46zM27 46a1 1 0 0 0-1 1v2a1 1 0 0 0 2 0V47A1 1 0 0 0 27 46zM47 46a1 1 0 0 0-1 1v2a1 1 0 0 0 2 0V47A1 1 0 0 0 47 46zM52 46a1 1 0 0 0-1 1v2a1 1 0 0 0 2 0V47A1 1 0 0 0 52 46zM57 46a1 1 0 0 0-1 1v2a1 1 0 0 0 2 0V47A1 1 0 0 0 57 46zM32 46a1 1 0 0 0-1 1v2a1 1 0 0 0 2 0V47A1 1 0 0 0 32 46zM42 46a1 1 0 0 0-1 1v2a1 1 0 0 0 2 0V47A1 1 0 0 0 42 46zM37 46a1 1 0 0 0-1 1v2a1 1 0 0 0 2 0V47A1 1 0 0 0 37 46z"/><path fill="#8d6c9f" d="M61,10H3a3,3,0,0,0-3,3V51a3,3,0,0,0,3,3H61a3,3,0,0,0,3-3V13A3,3,0,0,0,61,10ZM2,13a1,1,0,0,1,1-1H30V34H2Zm60,2V46a1,1,0,0,0-1,1v2a1,1,0,0,0,1,1v1a1,1,0,0,1-1,1H3a1,1,0,0,1-1-1V50a1,1,0,0,0,1-1V47a1,1,0,0,0-1-1V36H30a2,2,0,0,0,2-2V12H61a1,1,0,0,1,1,1Z"/></svg>