<svg xmlns="http://www.w3.org/2000/svg"  viewBox="0 0 64 64" width="512px" height="512px"><path fill="#fff8ee" d="M47,59H17c-6.627,0-12-5.373-12-12V17c0-6.627,5.373-12,12-12h30c6.627,0,12,5.373,12,12v30 C59,53.627,53.627,59,47,59z"/><polygon fill="#f3e2ce" points="55,56 37.423,45.012 50.518,22.261 53.551,22.506 55.335,19.021 53.034,17.891 57,11 59,16 59,45 58,52"/><path fill="#b5c4e0" d="M53.52,6.828c0,0-2.157,3.696-4.245,7.462c-0.182,0.328-0.173,0.733,0.038,1.043 c0.677,0.995,2.486,3.088,6.021,3.688c0.414,0.07,0.829-0.15,1.024-0.523c0.845-1.61,2.061-3.976,2.219-4.663L53.52,6.828z"/><path fill="none" stroke="#85cbf8" stroke-linecap="round" stroke-linejoin="round" stroke-miterlimit="10" stroke-width="2" d="M19,45c5,0,4.35-1.998,7-1.998c3.457,0,3.034,2.998,8.034,2.998c2.528,0,3.757-2.371,3.757-2.371"/><path fill="#8d6c9f" d="M22,50c-0.552,0-1,0.448-1,1v2c0,0.552,0.448,1,1,1s1-0.448,1-1v-2C23,50.448,22.552,50,22,50z"/><path fill="#8d6c9f" d="M17,50c-0.552,0-1,0.448-1,1v2c0,0.552,0.448,1,1,1s1-0.448,1-1v-2C18,50.448,17.552,50,17,50z"/><path fill="#8d6c9f" d="M12,50c-0.552,0-1,0.448-1,1v2c0,0.552,0.448,1,1,1s1-0.448,1-1v-2C13,50.448,12.552,50,12,50z"/><path fill="#8d6c9f" d="M27,50c-0.552,0-1,0.448-1,1v2c0,0.552,0.448,1,1,1s1-0.448,1-1v-2C28,50.448,27.552,50,27,50z"/><path fill="#8d6c9f" d="M37,50c-0.552,0-1,0.448-1,1v2c0,0.552,0.448,1,1,1s1-0.448,1-1v-2C38,50.448,37.552,50,37,50z"/><path fill="#8d6c9f" d="M32,50c-0.552,0-1,0.448-1,1v2c0,0.552,0.448,1,1,1s1-0.448,1-1v-2C33,50.448,32.552,50,32,50z"/><path fill="#8d6c9f" d="M52,50c-0.552,0-1,0.448-1,1v2c0,0.552,0.448,1,1,1s1-0.448,1-1v-2C53,50.448,52.552,50,52,50z"/><path fill="#8d6c9f" d="M42,50c-0.552,0-1,0.448-1,1v2c0,0.552,0.448,1,1,1s1-0.448,1-1v-2C43,50.448,42.552,50,42,50z"/><path fill="#8d6c9f" d="M47,50c-0.552,0-1,0.448-1,1v2c0,0.552,0.448,1,1,1s1-0.448,1-1v-2C48,50.448,47.552,50,47,50z"/><path fill="none" stroke="#8d6c9f" stroke-miterlimit="10" stroke-width="2" d="M47,59H17c-6.627,0-12-5.373-12-12V17 c0-6.627,5.373-12,12-12h30c6.627,0,12,5.373,12,12v30C59,53.627,53.627,59,47,59z"/><line x1="36" x2="42" y1="28" y2="28" fill="none" stroke="#85cbf8" stroke-linecap="round" stroke-linejoin="round" stroke-miterlimit="10" stroke-width="2"/><line x1="19" x2="46" y1="20" y2="20" fill="none" stroke="#85cbf8" stroke-linecap="round" stroke-linejoin="round" stroke-miterlimit="10" stroke-width="2"/><path fill="#b5c4e0" d="M54,23c-4-1-7-4-7-4c-5.298,9.841-11.23,23.036-9.041,24.371C40.034,44.635,48.626,32.015,54,23z"/><line x1="19" x2="38" y1="37" y2="37" fill="none" stroke="#85cbf8" stroke-linecap="round" stroke-linejoin="round" stroke-miterlimit="10" stroke-width="2"/><g><path fill="none" stroke="#8d6c9f" stroke-miterlimit="10" stroke-width="2" d="M53.52,6.828c0,0-2.433,4.266-4.521,8.032 c-0.182,0.328-0.173,0.733,0.038,1.043c0.677,0.995,3.114,2.911,6.337,3.914c0.401,0.125,0.829-0.15,1.024-0.523 c0.845-1.61,2.387-4.562,2.387-4.562"/></g><path fill="none" stroke="#8d6c9f" stroke-linecap="round" stroke-linejoin="round" stroke-miterlimit="10" stroke-width="2" d="M54,23c-4-1-7-4-7-4c-5.298,9.841-11.23,23.036-9.041,24.371C40.034,44.635,48.626,32.015,54,23z"/><line x1="29" x2="32" y1="28" y2="28" fill="none" stroke="#85cbf8" stroke-linecap="round" stroke-linejoin="round" stroke-miterlimit="10" stroke-width="2"/><line x1="19" x2="25" y1="28" y2="28" fill="none" stroke="#85cbf8" stroke-linecap="round" stroke-linejoin="round" stroke-miterlimit="10" stroke-width="2"/><line x1="36.887" x2="37.959" y1="45.012" y2="43.371" fill="none" stroke="#8d6c9f" stroke-linecap="round" stroke-linejoin="round" stroke-miterlimit="10" stroke-width="2"/><line x1="54" x2="55.876" y1="23" y2="19.472" fill="none" stroke="#8d6c9f" stroke-miterlimit="10" stroke-width="2"/><path fill="none" stroke="#8d6c9f" stroke-miterlimit="10" stroke-width="2" d="M48.871,15.629L47,19"/></svg>