<svg xmlns="http://www.w3.org/2000/svg"  viewBox="0 0 64 64" width="512px" height="512px"><path fill="#faefde" d="M15.24,4.94H44a3,3,0,0,1,3,3v48a3,3,0,0,1-3,3H6a3,3,0,0,1-3-3V17.18a3,3,0,0,1,.88-2.12l9.24-9.24A3,3,0,0,1,15.24,4.94Z"/><path fill="#fff7f0" d="M3 59L2.85 49.54 46.34 6.06 47 29 17 59 3 59zM2.85 39.15L37.06 4.94 42.81 5.19 3 45 2.85 39.15zM2.85 33.15L31 5 34 5 2.85 36.15 2.85 33.15z"/><path fill="#fff" d="M19.5 42L20.74 44.26 23 45.5 20.74 46.74 19.5 49 18.26 46.74 16 45.5 18.26 44.26 19.5 42zM22.42 11L23.27 12.56 24.84 13.42 23.27 14.27 22.42 15.84 21.56 14.27 20 13.42 21.56 12.56 22.42 11zM7.65 39L8.23 40.06 9.3 40.65 8.23 41.23 7.65 42.3 7.07 41.23 6 40.65 7.07 40.06 7.65 39z"/><path fill="#bbdef9" d="M15 5L15 17 3 17 15 5z"/><path fill="#ffeb9b" d="M40 17A16 16 0 1 0 40 49A16 16 0 1 0 40 17Z"/><path fill="#f6d397" d="M49.24,42.24,30.76,23.76a2.65,2.65,0,0,0-4.08.36A16,16,0,0,0,48.88,46.31,2.65,2.65,0,0,0,49.24,42.24Z"/><path fill="#bbdef9" d="M40 22A11 11 0 1 0 40 44A11 11 0 1 0 40 22Z"/><path fill="#d2edff" d="M40 26.4A6.6 6.6 0 1 0 40 39.6A6.6 6.6 0 1 0 40 26.4Z"/><path fill="#f3f3f3" d="M36.46 27.02A2.44 2.44 0 1 0 36.46 31.900000000000002 2.44 2.44 0 1 0 36.46 27.02zM43.85 37.03A.92.92 0 1 0 43.85 38.870000000000005.92.92 0 1 0 43.85 37.03z"/><path fill="#cda1a7" d="M53.61 42.29H58.879999999999995V56.76H53.61z" transform="rotate(-45 56.252 49.52)"/><path fill="#8d6c9f" d="M21 24h2a1 1 0 0 0 0-2H21a1 1 0 0 0 0 2zM13 24h4a1 1 0 0 0 0-2H13a1 1 0 0 0 0 2zM13 28h9a1 1 0 0 0 0-2H13a1 1 0 0 0 0 2zM20 36H13a1 1 0 0 0 0 2h7a1 1 0 0 0 0-2zM13 34h7a1 1 0 0 0 0-2H13a1 1 0 0 0 0 2zM7 52a1 1 0 0 0-1 1v2a1 1 0 0 0 2 0V53A1 1 0 0 0 7 52zM12 52a1 1 0 0 0-1 1v2a1 1 0 0 0 2 0V53A1 1 0 0 0 12 52zM17 52a1 1 0 0 0-1 1v2a1 1 0 0 0 2 0V53A1 1 0 0 0 17 52zM22 52a1 1 0 0 0-1 1v2a1 1 0 0 0 2 0V53A1 1 0 0 0 22 52zM27 52a1 1 0 0 0-1 1v2a1 1 0 0 0 2 0V53A1 1 0 0 0 27 52zM32 52a1 1 0 0 0-1 1v2a1 1 0 0 0 2 0V53A1 1 0 0 0 32 52zM37 52a1 1 0 0 0-1 1v2a1 1 0 0 0 2 0V53A1 1 0 0 0 37 52zM42 56a1 1 0 0 0 1-1V53a1 1 0 0 0-2 0v2A1 1 0 0 0 42 56z"/><path fill="#8d6c9f" d="M62.71,50.29,54.4,42A16.94,16.94,0,0,0,48,18V7a3,3,0,0,0-3-3H15.66a5,5,0,0,0-3.54,1.46L3.46,14.12A5,5,0,0,0,2,17.66V57a3,3,0,0,0,3,3H45a3,3,0,0,0,3-3V48c.34-.18.66-.39,1-.59l8.3,8.3a3.83,3.83,0,0,0,5.41-5.41ZM55,33A15,15,0,1,1,40,18,15,15,0,0,1,55,33ZM13.54,6.88A3,3,0,0,1,14,6.5V15a1,1,0,0,1-1,1H4.5a3,3,0,0,1,.38-.46ZM46,57a1,1,0,0,1-1,1H5a1,1,0,0,1-1-1V18h9a3,3,0,0,0,3-3V6H45a1,1,0,0,1,1,1V17.11a17,17,0,1,0,0,31.77Zm15.29-2.71a1.83,1.83,0,0,1-2.59,0l-8.06-8.06a17.13,17.13,0,0,0,2.59-2.59l8.06,8.06A1.83,1.83,0,0,1,61.29,54.29Z"/><path fill="#8d6c9f" d="M28,33A12,12,0,1,0,40,21,12,12,0,0,0,28,33Zm22,0A10,10,0,1,1,40,23,10,10,0,0,1,50,33Z"/><path fill="#8d6c9f" d="M39,26a1,1,0,0,0,1,1,6,6,0,0,1,5.52,3.65,1,1,0,1,0,1.84-.79A8,8,0,0,0,40,25,1,1,0,0,0,39,26Z"/></svg>