<svg xmlns="http://www.w3.org/2000/svg"  viewBox="0 0 64 64" width="512px" height="512px"><path fill="#efd8be" d="M49,9V53H15v3a3,3,0,0,0,3,3H54a3,3,0,0,0,3-3V12a3,3,0,0,0-3-3Z"/><path fill="#faefde" d="M19.24,2.94H46a3,3,0,0,1,3,3v44a3,3,0,0,1-3,3H10a3,3,0,0,1-3-3V15.18a3,3,0,0,1,.88-2.12l9.24-9.24A3,3,0,0,1,19.24,2.94Z"/><path fill="#fff7f0" d="M49 29V5.94a3 3 0 0 0 0-.49l-42 42v2.54a3 3 0 0 0 3 3H25.06zM6.85 37.15L41.06 2.94 46.81 3.19 7 43 6.85 37.15zM6.85 31.15L35 3 38 3 6.85 34.15 6.85 31.15z"/><path fill="#fff" d="M41.5 11L42.74 13.26 45 14.5 42.74 15.74 41.5 18 40.26 15.74 38 14.5 40.26 13.26 41.5 11zM26.42 9L27.27 10.56 28.84 11.42 27.27 12.27 26.42 13.84 25.56 12.27 24 11.42 25.56 10.56 26.42 9zM12.65 40L13.23 41.06 14.3 41.65 13.23 42.23 12.65 43.3 12.06 42.23 11 41.65 12.06 41.06 12.65 40z"/><path fill="#bbdef9" d="M19 3L19 15 7 15 19 3z"/><path fill="#8d6c9f" d="M35 22h4a1 1 0 0 0 0-2H35a1 1 0 0 0 0 2zM17 22H31a1 1 0 0 0 0-2H17a1 1 0 0 0 0 2zM17 26H35a1 1 0 0 0 0-2H17a1 1 0 0 0 0 2zM17 36H27a1 1 0 0 0 0-2H17a1 1 0 0 0 0 2zM17 32H37a1 1 0 0 0 0-2H17a1 1 0 0 0 0 2zM13 44a1 1 0 0 0-1 1v2a1 1 0 0 0 2 0V45A1 1 0 0 0 13 44zM18 44a1 1 0 0 0-1 1v2a1 1 0 0 0 2 0V45A1 1 0 0 0 18 44zM23 44a1 1 0 0 0-1 1v2a1 1 0 0 0 2 0V45A1 1 0 0 0 23 44zM28 44a1 1 0 0 0-1 1v2a1 1 0 0 0 2 0V45A1 1 0 0 0 28 44zM33 44a1 1 0 0 0-1 1v2a1 1 0 0 0 2 0V45A1 1 0 0 0 33 44zM38 44a1 1 0 0 0-1 1v2a1 1 0 0 0 2 0V45A1 1 0 0 0 38 44zM43 48a1 1 0 0 0 1-1V45a1 1 0 0 0-2 0v2A1 1 0 0 0 43 48z"/><path fill="#8d6c9f" d="M55,8H50V5a3,3,0,0,0-3-3H19.66a5,5,0,0,0-3.54,1.46L7.46,12.12A5,5,0,0,0,6,15.66V51a3,3,0,0,0,3,3h5v3a3,3,0,0,0,3,3H55a3,3,0,0,0,3-3V11A3,3,0,0,0,55,8ZM17.54,4.88A3,3,0,0,1,18,4.5V13a1,1,0,0,1-1,1H8.5a3,3,0,0,1,.38-.46ZM8,51V48a1,1,0,0,0,1-1V45a1,1,0,0,0-1-1V16h9a3,3,0,0,0,3-3V4H47a1,1,0,0,1,1,1V44a1,1,0,0,0-1,1v2a1,1,0,0,0,1,1v3a1,1,0,0,1-1,1H9A1,1,0,0,1,8,51Zm48,6a1,1,0,0,1-1,1H17a1,1,0,0,1-1-1V54H47a3,3,0,0,0,3-3V10h5a1,1,0,0,1,1,1Z"/></svg>