<svg xmlns="http://www.w3.org/2000/svg"  viewBox="0 0 64 64" width="512px" height="512px"><path fill="#faefde" d="M55 24.01L55 59 7 59 7 24.01 7.12 23.95 31 13 54.88 23.95 55 24.01z"/><path fill="#f9dd8f" d="M15 33H47a2 2 0 0 1 2 2V59a0 0 0 0 1 0 0H13a0 0 0 0 1 0 0V35A2 2 0 0 1 15 33zM15 33H47a2 2 0 0 1 2 2v6a0 0 0 0 1 0 0H13a0 0 0 0 1 0 0V35A2 2 0 0 1 15 33z"/><path fill="#f6d397" d="M13 53H49V59H13z"/><path fill="#ed7899" d="M31.45,13.22,57.55,26.28A1,1,0,0,0,59,25.38V22.24a2,2,0,0,0-1.11-1.79l-26-13a2,2,0,0,0-1.79,0l-26,13A2,2,0,0,0,3,22.24v3.15a1,1,0,0,0,1.45.89L30.55,13.22A1,1,0,0,1,31.45,13.22Z"/><path fill="#efd8be" d="M55,24v2.75a2,2,0,0,1-2.89,1.79L31.45,18.22a1,1,0,0,0-.9,0L9.89,28.55A2,2,0,0,1,7,26.76V24L7.12,24l23-11.5a2,2,0,0,1,1.78,0l23,11.5Z"/><path fill="#8d6c9f" d="M45,46H41a1,1,0,0,0,0,2h4a1,1,0,0,0,0-2Z"/><path fill="#8d6c9f" d="M57.11,27.17A2,2,0,0,0,60,25.38V22.24a3,3,0,0,0-1.66-2.68l-26-13a3,3,0,0,0-2.68,0l-26,13A3,3,0,0,0,2,22.24v3.15a2,2,0,0,0,2.89,1.79L6,26.62V58H3a1,1,0,0,0,0,2H59a1,1,0,0,0,0-2H56V26.62ZM4,25.38V22.24a1,1,0,0,1,.55-.89l26-13a1,1,0,0,1,.9,0l26,13a1,1,0,0,1,.55.89v3.15L31.89,12.33a2,2,0,0,0-1.79,0ZM14,58V54H48v4Zm0-10H37a1,1,0,0,0,0-2H14V42H48V52H14Zm34-8H14V35a1,1,0,0,1,1-1H47a1,1,0,0,1,1,1Zm6,18H50V35a3,3,0,0,0-3-3H15a3,3,0,0,0-3,3V58H8V25.62l23-11.5,23,11.5Z"/><path fill="#8d6c9f" d="M16 26a1 1 0 0 0-1 1v2a1 1 0 0 0 2 0V27A1 1 0 0 0 16 26zM11 26a1 1 0 0 0-1 1v2a1 1 0 0 0 2 0V27A1 1 0 0 0 11 26zM26 26a1 1 0 0 0-1 1v2a1 1 0 0 0 2 0V27A1 1 0 0 0 26 26zM30 27v2a1 1 0 0 0 2 0V27a1 1 0 0 0-2 0zM21 26a1 1 0 0 0-1 1v2a1 1 0 0 0 2 0V27A1 1 0 0 0 21 26zM46 30a1 1 0 0 0 1-1V27a1 1 0 0 0-2 0v2A1 1 0 0 0 46 30zM51 30a1 1 0 0 0 1-1V27a1 1 0 0 0-2 0v2A1 1 0 0 0 51 30zM36 30a1 1 0 0 0 1-1V27a1 1 0 0 0-2 0v2A1 1 0 0 0 36 30zM41 30a1 1 0 0 0 1-1V27a1 1 0 0 0-2 0v2A1 1 0 0 0 41 30zM33 36H29a1 1 0 0 0 0 2h4a1 1 0 0 0 0-2z"/></svg>