<svg xmlns="http://www.w3.org/2000/svg"  viewBox="0 0 64 64" width="512px" height="512px"><path fill="#72caaf" d="M55,17.22V56c0,1.657-1.343,3-3,3H14c-1.522,0.012-2.812-1.119-3-2.63c-0.01-0.123-0.01-0.247,0-0.37	V8c0-1.657,1.343-3,3-3h28.76c0.637,0.001,1.256,0.204,1.77,0.58c0.131,0.086,0.252,0.186,0.36,0.3l9.24,9.24	c0.24,0.235,0.433,0.513,0.57,0.82C54.9,16.337,55.003,16.776,55,17.22z"/><path fill="#82d8bb" d="M55.08,29l-30,30h-14v-2.66v-1.75l-0.08-5l0.08-0.08l38.68-38.78l4.37,4.37	c0.24,0.235,0.433,0.513,0.57,0.82L55,26.58L55.08,29z M47.55,8.53L11.08,45L11,42.28l-0.08-3.12L11,39.08L44.53,5.56	c0.131,0.086,0.252,0.186,0.36,0.3L47.55,8.53z M10.93,33.16L39.08,5.01h3L10.93,36.16V33.16z"/><path fill="#97e0bb" d="M20.5,15.04l-1.24,2.26L17,18.54l2.26,1.24l1.24,2.26l1.24-2.26L24,18.54l-2.26-1.24L20.5,15.04z M35.58,10.04l-0.85,1.56l-1.57,0.86l1.57,0.85l0.85,1.57l0.86-1.57L38,12.46l-1.56-0.86L35.58,10.04z M50.35,42.04l-0.58,1.06	l-1.06,0.59l1.06,0.58l0.58,1.07l0.59-1.07L52,43.69l-1.06-0.59L50.35,42.04z"/><path fill="#ffefb8" d="M43,5.04v12h12L43,5.04z"/><path fill="#8d6c9f" d="M54.54,14.12l-8.66-8.66C44.94,4.523,43.667,3.998,42.34,4H13c-1.657,0-3,1.343-3,3v50	c0,1.657,1.343,3,3,3h40c1.657,0,3-1.343,3-3V17.66C56.002,16.333,55.477,15.06,54.54,14.12z M53.13,15.53	c0.142,0.14,0.269,0.294,0.38,0.46H45c-0.552,0-1-0.448-1-1V6.5c0.166,0.111,0.32,0.238,0.46,0.38L53.13,15.53z M53,58H13	c-0.552,0-1-0.448-1-1V7c0-0.552,0.448-1,1-1h29v9c0,1.657,1.343,3,3,3h9v39C54,57.552,53.552,58,53,58z"/><path fill="#8d6c9f" d="M15,50c-0.552,0-1,0.448-1,1v2c0,0.552,0.448,1,1,1s1-0.448,1-1v-2C16,50.448,15.552,50,15,50z M20,50c-0.552,0-1,0.448-1,1v2c0,0.552,0.448,1,1,1s1-0.448,1-1v-2C21,50.448,20.552,50,20,50z M25,50c-0.552,0-1,0.448-1,1v2	c0,0.552,0.448,1,1,1s1-0.448,1-1v-2C26,50.448,25.552,50,25,50z M30,50c-0.552,0-1,0.448-1,1v2c0,0.552,0.448,1,1,1s1-0.448,1-1v-2	C31,50.448,30.552,50,30,50z M35,50c-0.552,0-1,0.448-1,1v2c0,0.552,0.448,1,1,1s1-0.448,1-1v-2C36,50.448,35.552,50,35,50z M40,50	c-0.552,0-1,0.448-1,1v2c0,0.552,0.448,1,1,1s1-0.448,1-1v-2C41,50.448,40.552,50,40,50z M45,50c-0.552,0-1,0.448-1,1v2	c0,0.552,0.448,1,1,1s1-0.448,1-1v-2C46,50.448,45.552,50,45,50z M50,50c-0.552,0-1,0.448-1,1v2c0,0.552,0.448,1,1,1s1-0.448,1-1v-2	C51,50.448,50.552,50,50,50z"/><path fill="#fff" d="M45,26H21c-0.553,0-1,0.447-1,1v18c0,0.553,0.447,1,1,1h24c0.553,0,1-0.447,1-1V27	C46,26.447,45.553,26,45,26z M22,34h5v4h-5V34z M29,34h15v4H29V34z M44,32H29v-4h15V32z M27,28v4h-5v-4H27z M22,40h5v4h-5V40z M29,44v-4h15v4H29z"/></svg>